<svg xmlns="http://www.w3.org/2000/svg" width="1000" height="1000" viewBox="0 0 1000 1000">
  <g id="e0d58638-7f38-48f1-a379-02ef72f6f693" data-name="illustration">
    <g id="fd5f0754-5861-4463-afb9-402f57c8911e" data-name="coming soon">
      <g id="b34e4731-d49a-4d1e-84de-879e87deca89" data-name="megafon">
        <g>
          <path d="M281.59,764.87l-8.35,4.86a17.2,17.2,0,0,1-23.52-6.24L165.78,618.81l38.09-22.17,83.95,144.69A17.23,17.23,0,0,1,281.59,764.87Z" style="fill: #6c32ad"/>
          <path d="M264.63,773.57a18.87,18.87,0,0,1-4.82-.63,18.59,18.59,0,0,1-11.39-8.7l-84.69-146,40.69-23.68,84.7,146a18.77,18.77,0,0,1-6.78,25.59L274,771A18.54,18.54,0,0,1,264.63,773.57Zm-96.8-154.21L251,762.73a15.69,15.69,0,0,0,21.48,5.7l8.35-4.86a15.74,15.74,0,0,0,5.68-21.48L203.33,598.7Z" style="fill: #1d1e1b"/>
        </g>
        <g>
          <path d="M211.78,592.19l-59.69,34.74a10.36,10.36,0,0,1-14.15-3.75L107.68,571a10.34,10.34,0,0,1,3.74-14.13l59.69-34.74a10.34,10.34,0,0,1,14.15,3.75l30.27,52.16A10.35,10.35,0,0,1,211.78,592.19Z" style="fill: #d9cfff"/>
          <path d="M146.91,629.83a11.88,11.88,0,0,1-10.26-5.9l-30.27-52.17a11.86,11.86,0,0,1,4.29-16.18l59.69-34.74a11.85,11.85,0,0,1,16.2,4.29l30.26,52.17a11.86,11.86,0,0,1-4.28,16.18l-59.69,34.74A11.76,11.76,0,0,1,146.91,629.83Zm29.39-107.6a8.89,8.89,0,0,0-4.44,1.2l-59.69,34.74a8.88,8.88,0,0,0-3.2,12.09l30.27,52.16a8.86,8.86,0,0,0,12.1,3.21L211,590.89a8.86,8.86,0,0,0,3.2-12.08L184,526.64a8.74,8.74,0,0,0-5.38-4.11A8.93,8.93,0,0,0,176.3,522.23Z"/>
        </g>
        <g>
          <path d="M133.08,614.79l-6.17,3.59a14.47,14.47,0,0,1-19.81-5.25l-7.58-13.07a14.51,14.51,0,0,1,5.24-19.82l6.18-3.6Z" style="fill: #6c32ad"/>
          <path d="M119.66,621.85a15.65,15.65,0,0,1-4.12-.54,15.88,15.88,0,0,1-9.74-7.43l-7.58-13.07A16,16,0,0,1,104,578.94l7.48-4.35,23.64,40.75-7.46,4.34A15.91,15.91,0,0,1,119.66,621.85Zm-9.26-43.16-4.88,2.84a13,13,0,0,0-4.71,17.78l7.59,13.07a13,13,0,0,0,17.76,4.71l4.87-2.84Z" style="fill: #1d1e1b"/>
        </g>
        <g>
          <path d="M417.79,553,215.88,578.66l-31.79-54.8L299.87,349.77Q383,450.35,417.79,553Z" style="fill: #d9cfff"/>
          <path d="M215.08,580.28l-32.76-56.47L299.74,347.25l1.29,1.56c55.24,66.88,95,135.42,118.18,203.72l.59,1.74Zm-29.23-56.36,30.83,53.13,199.1-25.29c-23-66.85-61.9-133.95-115.78-199.48Z"/>
        </g>
        <g>
          <path d="M440.28,549.21l-7.84,4.56a12.28,12.28,0,0,1-16.8-4.46Q378.08,442,300.41,350.7a12.32,12.32,0,0,1,4.45-16.83l7.84-4.56a12.27,12.27,0,0,1,16.8,4.46c50.94,59.72,89.58,125.81,115.23,198.61A12.32,12.32,0,0,1,440.28,549.21Z" style="fill: #6c32ad"/>
          <path d="M426.29,556.94a13.89,13.89,0,0,1-3.55-.46,13.75,13.75,0,0,1-8.4-6.42l-.12-.26c-24.86-71-63.54-137.66-115-198.13l-.16-.22a13.85,13.85,0,0,1,5-18.88l7.83-4.56a13.78,13.78,0,0,1,18.79,4.89c51.22,60.08,90,127,115.37,198.85A13.83,13.83,0,0,1,441,550.5l-.75-1.29.75,1.29-7.83,4.56A13.65,13.65,0,0,1,426.29,556.94ZM417,548.67a10.76,10.76,0,0,0,14.68,3.8l7.83-4.56a10.83,10.83,0,0,0,3.91-14.78l-.12-.25c-25.22-71.62-63.9-138.28-114.95-198.14l-.16-.22a10.77,10.77,0,0,0-14.75-3.91l-7.83,4.56a10.82,10.82,0,0,0-4,14.66C353.22,410.52,392,477.42,417,548.67Z" style="fill: #1d1e1b"/>
        </g>
        <path d="M408.29,471.47a2.5,2.5,0,0,1-2.25-1.41c-35.78-73.7-77.16-122.19-77.58-122.67a2.5,2.5,0,1,1,3.79-3.26c.42.48,42.21,49.43,78.29,123.75a2.51,2.51,0,0,1-1.16,3.34A2.48,2.48,0,0,1,408.29,471.47Z" style="fill: #fff"/>
        <path d="M219.47,487.92a2.55,2.55,0,0,1-1.37-.41,2.5,2.5,0,0,1-.72-3.47l71.29-108.58a2.5,2.5,0,0,1,4.18,2.75L221.56,486.79A2.5,2.5,0,0,1,219.47,487.92Z" style="fill: #fff"/>
        <path d="M208,581.16a2.49,2.49,0,0,1-2.17-1.24l-30.42-52.51a2.5,2.5,0,0,1,4.33-2.5l30.42,52.5a2.49,2.49,0,0,1-2.16,3.75Z" style="fill: #fff"/>
        <g>
          <line x1="271.86" y1="346.5" x2="233.92" y2="406.5" style="fill: #d9cfff"/>
          <path d="M233.92,408a1.49,1.49,0,0,1-1.26-2.3l37.94-60a1.5,1.5,0,1,1,2.53,1.6l-37.94,60A1.49,1.49,0,0,1,233.92,408Z"/>
        </g>
      </g>
      <g id="ae661134-ea6f-461b-aec4-c7a71e275779" data-name="stars">
        <g>
          <path d="M365.14,193.87l2.5-6a5.47,5.47,0,0,0,.28-3.32l-1.48-6.33a5.42,5.42,0,0,1,5.71-6.63l6.47.52a5.34,5.34,0,0,0,3.24-.76l5.56-3.36a5.41,5.41,0,0,1,8.06,3.39l1.5,6.33a5.38,5.38,0,0,0,1.72,2.84l4.91,4.26a5.43,5.43,0,0,1-.73,8.73l-5.54,3.38a5.38,5.38,0,0,0-2.17,2.52l-2.53,6a5.41,5.41,0,0,1-8.51,2l-4.93-4.24a5.42,5.42,0,0,0-3.06-1.29l-6.47-.55A5.43,5.43,0,0,1,365.14,193.87Z" style="fill: #d9cfff"/>
          <path d="M387.63,210.25a6.83,6.83,0,0,1-4.48-1.68l-4.92-4.23a3.9,3.9,0,0,0-2.22-.93l-6.47-.56a6.93,6.93,0,0,1-5.79-9.56l2.5-6a3.87,3.87,0,0,0,.2-2.4L365,178.56a6.92,6.92,0,0,1,7.29-8.47l6.47.53a3.84,3.84,0,0,0,2.34-.55l5.56-3.36a6.91,6.91,0,0,1,10.3,4.33l1.5,6.32a3.89,3.89,0,0,0,1.24,2.06l4.91,4.26a6.93,6.93,0,0,1-.93,11.14l-5.54,3.38a3.87,3.87,0,0,0-1.57,1.82L394,206a6.84,6.84,0,0,1-4.79,4.05A6.73,6.73,0,0,1,387.63,210.25Zm-21.11-15.8a3.92,3.92,0,0,0,3.28,5.41l6.47.56a6.82,6.82,0,0,1,3.91,1.64l4.93,4.24a3.91,3.91,0,0,0,6.15-1.45l2.52-6a6.9,6.9,0,0,1,2.77-3.22l5.55-3.38a3.93,3.93,0,0,0,.52-6.32l-4.9-4.25a6.79,6.79,0,0,1-2.2-3.64l-1.5-6.32a3.91,3.91,0,0,0-5.83-2.45l-5.56,3.36a6.87,6.87,0,0,1-4.13,1l-6.47-.53a3.92,3.92,0,0,0-4.13,4.8l1.48,6.33a6.93,6.93,0,0,1-.36,4.24Z"/>
        </g>
        <g>
          <path d="M437,731.87l2.51-6a5.47,5.47,0,0,0,.27-3.32l-1.47-6.33a5.41,5.41,0,0,1,5.71-6.63l6.47.52a5.31,5.31,0,0,0,3.23-.76L459.3,706a5.41,5.41,0,0,1,8.06,3.39l1.5,6.33a5.4,5.4,0,0,0,1.73,2.84l4.9,4.26a5.42,5.42,0,0,1-.72,8.73l-5.55,3.38a5.38,5.38,0,0,0-2.17,2.52l-2.52,6a5.41,5.41,0,0,1-8.51,2l-4.93-4.24a5.42,5.42,0,0,0-3.06-1.29l-6.47-.55A5.43,5.43,0,0,1,437,731.87Z" style="fill: #d9cfff"/>
          <path d="M459.51,748.25a6.81,6.81,0,0,1-4.47-1.68l-4.93-4.23a3.85,3.85,0,0,0-2.21-.93l-6.47-.56a6.92,6.92,0,0,1-5.79-9.56l2.5-6a3.87,3.87,0,0,0,.2-2.4l-1.47-6.33a6.92,6.92,0,0,1,7.29-8.47l6.47.53a3.86,3.86,0,0,0,2.34-.55l5.56-3.36A6.9,6.9,0,0,1,468.82,709l1.5,6.32a3.85,3.85,0,0,0,1.25,2.06l4.91,4.26a6.93,6.93,0,0,1-.93,11.14L470,736.2a4,4,0,0,0-1.57,1.82l-2.52,6a7,7,0,0,1-6.4,4.24Zm-21.1-15.8a3.92,3.92,0,0,0,3.28,5.41l6.46.56a6.85,6.85,0,0,1,3.92,1.64L457,744.3a3.91,3.91,0,0,0,6.15-1.45l2.53-6a6.85,6.85,0,0,1,2.77-3.22l5.55-3.38a3.93,3.93,0,0,0,.52-6.32l-4.91-4.25a7,7,0,0,1-2.2-3.64l-1.5-6.32a3.9,3.9,0,0,0-5.82-2.45l-5.56,3.36a6.89,6.89,0,0,1-4.13,1l-6.47-.53a3.92,3.92,0,0,0-4.13,4.8l1.47,6.33a6.93,6.93,0,0,1-.35,4.24Z"/>
        </g>
        <g>
          <path d="M825.41,499.87l2.5-6a5.47,5.47,0,0,0,.28-3.32l-1.48-6.33a5.42,5.42,0,0,1,5.71-6.63l6.47.52a5.33,5.33,0,0,0,3.24-.76l5.56-3.36a5.41,5.41,0,0,1,8.06,3.39l1.5,6.33a5.38,5.38,0,0,0,1.72,2.84l4.91,4.26a5.43,5.43,0,0,1-.73,8.73l-5.54,3.38a5.38,5.38,0,0,0-2.17,2.52l-2.53,6a5.41,5.41,0,0,1-8.51,2l-4.92-4.24a5.45,5.45,0,0,0-3.07-1.29l-6.47-.55A5.43,5.43,0,0,1,825.41,499.87Z" style="fill: #d9cfff"/>
          <path d="M847.9,516.25a6.83,6.83,0,0,1-4.48-1.68l-4.92-4.23a3.88,3.88,0,0,0-2.22-.93l-6.46-.56a6.92,6.92,0,0,1-5.79-9.56l2.5-6a4,4,0,0,0,.2-2.4l-1.48-6.33a6.92,6.92,0,0,1,7.3-8.47l6.47.53a3.81,3.81,0,0,0,2.33-.55l5.56-3.36a6.91,6.91,0,0,1,10.3,4.33l1.5,6.32a3.89,3.89,0,0,0,1.24,2.06l4.91,4.26a6.93,6.93,0,0,1-.93,11.14l-5.54,3.38a3.87,3.87,0,0,0-1.57,1.82l-2.53,6a6.94,6.94,0,0,1-6.39,4.24Zm-21.1-15.8a3.91,3.91,0,0,0,3.27,5.41l6.47.56a6.82,6.82,0,0,1,3.91,1.64l4.93,4.24a3.91,3.91,0,0,0,6.15-1.45l2.53-6a6.79,6.79,0,0,1,2.77-3.22l5.54-3.38a3.94,3.94,0,0,0,.53-6.32L858,487.69a6.92,6.92,0,0,1-2.2-3.64l-1.5-6.32a3.91,3.91,0,0,0-5.83-2.45l-5.55,3.36a6.9,6.9,0,0,1-4.14,1l-6.47-.53a3.92,3.92,0,0,0-4.12,4.8l1.47,6.33a6.93,6.93,0,0,1-.35,4.24Z"/>
        </g>
        <g>
          <path d="M688.26,766.56l-4-10.45a9.36,9.36,0,0,0-3.61-4.46l-9.38-6.12a9.35,9.35,0,0,1-.8-15.07l8.67-7.08a9.31,9.31,0,0,0,3.12-4.81l2.91-10.82a9.31,9.31,0,0,1,14.06-5.42l9.41,6.07a9.25,9.25,0,0,0,5.53,1.48l11.18-.57A9.34,9.34,0,0,1,734.8,721l-2.87,10.84a9.36,9.36,0,0,0,.31,5.73l4,10.47a9.34,9.34,0,0,1-8.2,12.66l-11.17.62a9.33,9.33,0,0,0-5.35,2.06l-8.71,7A9.31,9.31,0,0,1,688.26,766.56Z" style="fill: #d9cfff"/>
          <path d="M697,774a10.94,10.94,0,0,1-2.82-.38,10.69,10.69,0,0,1-7.31-6.56l-4-10.45a7.8,7.8,0,0,0-3-3.74l-9.38-6.12a10.85,10.85,0,0,1-.93-17.49l8.68-7.08a7.77,7.77,0,0,0,2.61-4l2.91-10.82A10.83,10.83,0,0,1,700,701.07l9.4,6.07a7.78,7.78,0,0,0,4.64,1.25l11.18-.58a10.84,10.84,0,0,1,11,13.61l-2.87,10.83a7.83,7.83,0,0,0,.26,4.81l4,10.47a10.85,10.85,0,0,1-9.52,14.7l-11.17.62a7.79,7.79,0,0,0-4.49,1.73l-8.7,7A10.7,10.7,0,0,1,697,774Zm-2.84-71.71a7.86,7.86,0,0,0-7.57,5.81L683.67,719a10.8,10.8,0,0,1-3.62,5.59l-8.67,7.08a7.84,7.84,0,0,0,.67,12.65l9.38,6.11a10.76,10.76,0,0,1,4.18,5.18l4,10.45a7.82,7.82,0,0,0,12.21,3.27l8.71-7a10.8,10.8,0,0,1,6.2-2.39l11.18-.62a7.83,7.83,0,0,0,6.87-10.63l-4-10.47a10.81,10.81,0,0,1-.36-6.65l2.87-10.83a7.83,7.83,0,0,0-8-9.84l-11.17.57a10.65,10.65,0,0,1-6.43-1.72l-9.4-6.07A7.72,7.72,0,0,0,694.15,702.33Z"/>
        </g>
      </g>
      <g id="af872d56-f86b-47fe-aea1-787eb1b56d8e" data-name="hand">
        <g>
          <path d="M155.46,815.35s-13.48-44.74-11.74-89.7,38.11-77.59,38.11-77.59L195,669.53s19-14,48.57-20c21.57-4.33,22.48,2.87,23.41,11.69,0,0,12.1,5.43,4.47,31.22,0,0,26,22.08-36.58,72.76l21.33,33.38S215.52,813.65,155.46,815.35Z" style="fill: #ffcdb2"/>
          <path d="M154.36,816.88l-.33-1.1c-.14-.45-13.54-45.49-11.81-90.18,1.74-45.08,38.24-78.33,38.6-78.66l1.34-1.2,13.25,21.64a136.64,136.64,0,0,1,47.83-19.3c10.19-2.05,16.69-1.72,20.45,1,3.56,2.61,4.2,6.91,4.66,11.19,2.74,1.77,11.13,9.23,4.75,31.71,1.59,1.72,5.25,6.61,5.15,15-.14,11.37-7.47,30.71-41.43,58.5l21.6,33.83-1.74.64c-.41.15-41.56,15.15-101.17,16.84Zm27.16-166.45c-6.49,6.36-34.8,36.33-36.3,75.28-1.56,40.33,9.34,81,11.36,88.1,51.57-1.61,88.92-13.19,97.29-16l-21-32.91,1-.84c33.95-27.52,41.23-46.22,41.36-57.06.11-9.1-4.76-13.35-4.81-13.39l-.75-.64L270,692c7.1-24-3.55-29.39-3.66-29.44l-.76-.36-.1-.85c-.43-4-.83-7.86-3.53-9.84-3-2.2-8.91-2.38-18.09-.53-28.86,5.8-47.79,19.58-48,19.71l-1.31,1Z" style="fill: #1d1d1b"/>
        </g>
        <path d="M234.3,730.62a1.5,1.5,0,0,1-.69-2.83c.26-.14,26.68-14.08,36.43-35.94a1.5,1.5,0,0,1,2.74,1.22c-10.18,22.84-36.67,36.8-37.79,37.38A1.44,1.44,0,0,1,234.3,730.62Z"/>
        <path d="M207.41,700.53a1.5,1.5,0,0,1-.26-3c.37-.07,38-7.26,58.55-37.17a1.5,1.5,0,0,1,2.09-.39,1.52,1.52,0,0,1,.39,2.09c-21.29,31-60.11,38.35-60.5,38.42Z"/>
        <g>
          <path d="M155.46,815.35l-3.69,20.91s-30,30.14-10.1,75.58l185.82-2.76s-.55-64.59-57.79-88.61l-15.16-22.64S229.13,812.65,155.46,815.35Z" style="fill: #ffad00"/>
          <path d="M254.54,797.83l15.16,22.64c57.24,24,57.79,88.61,57.79,88.61l-185.82,2.76c-19.9-45.44,10.1-75.58,10.1-75.58l3.69-20.91c73.67-2.7,99.08-17.52,99.08-17.52m.93-4L253,795.23c-.41.23-26.19,14.5-97.69,17.12l-2.42.09-.42,2.39-3.54,20A68.73,68.73,0,0,0,136.45,856c-4.77,12.58-8.21,32.69,2.48,57.09l.8,1.83,2,0,185.82-2.76,3-.05,0-3a114.64,114.64,0,0,0-7.63-36.34c-6.8-17.85-21.19-41.74-51.16-54.65L257,796.16l-1.57-2.35Z"/>
        </g>
        <path d="M151.77,836.26s46.72,17,117.52-16.19l-14.75-22.24s-25.4,15.62-99.08,17.52Z" style="fill: #e89d00"/>
        <ellipse cx="156.04" cy="865.74" rx="6.52" ry="6.53" style="fill: #ffc140"/>
        <ellipse cx="269.52" cy="847.2" rx="6.52" ry="6.53" style="fill: #ffc140"/>
        <ellipse cx="214.87" cy="894.11" rx="6.52" ry="6.53" style="fill: #ffc140"/>
        <ellipse cx="300.58" cy="896.51" rx="6.52" ry="6.53" style="fill: #ffc140"/>
        <path d="M183.07,679.23a1.5,1.5,0,0,1-1.08-2.55c4.07-4.19,11.95-8.31,12.28-8.48a1.5,1.5,0,1,1,1.38,2.66c-.07,0-7.78,4.07-11.51,7.91A1.45,1.45,0,0,1,183.07,679.23Z"/>
        <path d="M193.48,680.07a2.5,2.5,0,0,1-1.54-4.47c1.22-1,30.32-23.41,63.57-24.72a2.5,2.5,0,0,1,.2,5c-31.61,1.24-60.41,23.44-60.69,23.66A2.48,2.48,0,0,1,193.48,680.07Z" style="fill: #fff"/>
        <path d="M214.68,705.13a2.5,2.5,0,0,1-.47-5c.4-.08,29-6,49.3-31.65a2.5,2.5,0,0,1,3.92,3.11c-21.56,27.2-51,33.2-52.27,33.44A2,2,0,0,1,214.68,705.13Z" style="fill: #fff"/>
        <path d="M243.13,733.1a2.5,2.5,0,0,1-1.19-4.7c.2-.11,19.27-10.58,27.36-27.39a2.5,2.5,0,0,1,4.5,2.16c-8.8,18.3-28.64,29.17-29.48,29.63A2.53,2.53,0,0,1,243.13,733.1Z" style="fill: #fff"/>
        <g>
          <line x1="103.13" y1="913.5" x2="666.24" y2="907.5" style="fill: #ffad00"/>
          <path d="M103.13,915a1.5,1.5,0,0,1,0-3l563.11-6a1.5,1.5,0,0,1,0,3l-563.11,6Z"/>
        </g>
        <path d="M746.11,881H641.28a1.5,1.5,0,0,1,0-3H746.11a1.5,1.5,0,1,1,0,3Z"/>
        <path d="M135.08,773a1.5,1.5,0,0,1-1.45-1.11c-13.95-51.9-.51-84.61.07-86a1.5,1.5,0,0,1,2.76,1.17c-.14.33-13.59,33.2.07,84a1.51,1.51,0,0,1-1.06,1.84A1.74,1.74,0,0,1,135.08,773Z"/>
      </g>
      <g id="ed5adbda-4aa6-41cc-9f9b-4115173f3320" data-name="Text">
        <g id="ac558a5a-4aec-4e8c-9b83-dabb54926eaa" data-name="Text">
          <g>
            <g>
              <path d="M460.72,322.23a18.72,18.72,0,0,0-7.08-.21,14.38,14.38,0,0,0-2.4.66,23.86,23.86,0,0,0-12,10l-1.94,3.13q-1.36,2.4-2.52,4.88t-2.13,4.58l-.32.65a50.85,50.85,0,0,0-3.61,10.51,103.73,103.73,0,0,0-2.14,12.8c-.22,2-.39,4.15-.51,6.3l-.18,4.3c0,1.24-.05,2.51-.05,3.78a128.09,128.09,0,0,0,.86,15.05,40.39,40.39,0,0,0,2.83,11.08,52.29,52.29,0,0,0,4.48,8.72,30.68,30.68,0,0,0,8.12,8.49,38.39,38.39,0,0,0,11.13,5.1c.78.24,1.73.48,2.9.74a20,20,0,0,0,4.38.45,22.79,22.79,0,0,0,4.94-.55,16.78,16.78,0,0,0,5.57-2.4c2.31-1.52,4.23-2.85,5.7-4s2.81-2.2,3.86-3.16,1.85-1.74,2.6-2.5l2-2.11a44.26,44.26,0,0,0,3.51-4c1.35-1.69,2.75-3.59,4.16-5.64s2.87-4.34,4.2-6.69a50.38,50.38,0,0,0,3.41-7.18,27.47,27.47,0,0,0,1.72-7.09,11.2,11.2,0,0,0-1.62-7.35,8.89,8.89,0,0,0-2.73-2.66,10.26,10.26,0,0,0-3.14-1.29,10.43,10.43,0,0,0-3.39-.22,7.9,7.9,0,0,0-3.6,1.25l-2.47,1.62-.49,1.08c-1.49,3.26-3,6.37-4.4,9.26a64.06,64.06,0,0,1-4.66,8,54.56,54.56,0,0,1-5.81,7.09,45.5,45.5,0,0,1-7.66,6.22,8.13,8.13,0,0,1-2.77,1.25,2.62,2.62,0,0,1-1.71-.29,21.54,21.54,0,0,1-3.32-2,12.51,12.51,0,0,1-2.9-3.22,32.66,32.66,0,0,1-3.31-6.5,37.17,37.17,0,0,1-1.88-7,53,53,0,0,1-.7-7.64,79.61,79.61,0,0,1,.27-8.11c.24-1.77.58-3.82,1-6.1s1-4.78,1.63-7.29,1.41-5.11,2.25-7.68a65.22,65.22,0,0,1,2.79-7.1,35,35,0,0,1,3.24-5.64,13.55,13.55,0,0,1,2.29-2.56c.27.21.55.44.83.7a12.47,12.47,0,0,0,2.67,1.93,9.18,9.18,0,0,0,3.63,1,7.84,7.84,0,0,0,4.86-1.41,15.37,15.37,0,0,0,1.63-1.23,6.54,6.54,0,0,0,2.19-3.56,7.58,7.58,0,0,0-.53-4.56,21.39,21.39,0,0,0-2-3.61,18.4,18.4,0,0,0-5.19-5.28A19.21,19.21,0,0,0,460.72,322.23Z" style="fill: #d9cfff"/>
              <path d="M460.55,434.76h-.05a21.76,21.76,0,0,1-4.71-.49c-1.21-.27-2.19-.52-3-.77a39.28,39.28,0,0,1-11.54-5.3,32.13,32.13,0,0,1-8.53-8.9,54.79,54.79,0,0,1-4.61-9,42.38,42.38,0,0,1-2.93-11.49,129.12,129.12,0,0,1-.87-15.23c0-1.28,0-2.55.05-3.81l.18-4.32c.12-2.18.3-4.32.52-6.4a106.51,106.51,0,0,1,2.17-13A51.69,51.69,0,0,1,431,345.28l.32-.65c.65-1.43,1.36-3,2.11-4.56s1.65-3.34,2.58-5l2-3.18a25.42,25.42,0,0,1,12.81-10.64,15.29,15.29,0,0,1,2.67-.73,20.07,20.07,0,0,1,7.65.23h0a20.69,20.69,0,0,1,7,3,20.21,20.21,0,0,1,5.62,5.7,23.29,23.29,0,0,1,2.12,3.88,9.08,9.08,0,0,1,.61,5.43,8.14,8.14,0,0,1-2.68,4.39,17.37,17.37,0,0,1-1.79,1.34,9.27,9.27,0,0,1-5.79,1.66,10.61,10.61,0,0,1-4.22-1.2,13.51,13.51,0,0,1-2.75-1.92,14,14,0,0,0-1.12,1.4,33.58,33.58,0,0,0-3.1,5.4,63.09,63.09,0,0,0-2.72,6.94c-.84,2.54-1.59,5.09-2.23,7.58s-1.18,4.91-1.61,7.19-.76,4.3-1,6c-.21,2.61-.3,5.28-.25,7.87a51.28,51.28,0,0,0,.68,7.42,36.79,36.79,0,0,0,1.8,6.74,31.52,31.52,0,0,0,3.17,6.19,10.74,10.74,0,0,0,2.53,2.84,18.72,18.72,0,0,0,3.07,1.88,1.57,1.57,0,0,0,.78.18,6.84,6.84,0,0,0,2.24-1,44.23,44.23,0,0,0,7.4-6,52.92,52.92,0,0,0,5.65-6.88A63.92,63.92,0,0,0,479,389c1.42-2.88,2.89-6,4.38-9.23l.67-1.46,2.83-1.86a9.49,9.49,0,0,1,4.26-1.49,11.78,11.78,0,0,1,7.48,1.73,10.27,10.27,0,0,1,3.19,3.1,12.66,12.66,0,0,1,1.86,8.32,29.1,29.1,0,0,1-1.8,7.48,52.31,52.31,0,0,1-3.51,7.39c-1.36,2.39-2.8,4.68-4.27,6.81s-2.86,4-4.23,5.71a46.08,46.08,0,0,1-3.64,4.14c-.53.56-1.09,1.13-1.63,1.69l-.38.39c-.77.78-1.66,1.64-2.66,2.56s-2.39,2.05-4,3.24-3.46,2.49-5.79,4a17.85,17.85,0,0,1-6.07,2.61A24.63,24.63,0,0,1,460.55,434.76Zm-3.9-111.48a17.24,17.24,0,0,0-2.77.22,12.67,12.67,0,0,0-2.12.59,22.42,22.42,0,0,0-11.29,9.4l-1.93,3.13c-.87,1.52-1.7,3.13-2.45,4.73s-1.44,3.1-2.11,4.56l-.34.69a49.56,49.56,0,0,0-3.5,10.19A102.7,102.7,0,0,0,428,369.41c-.21,2-.38,4.12-.5,6.22l-.18,4.28c0,1.21-.05,2.46-.05,3.72a125.45,125.45,0,0,0,.85,14.88,39.45,39.45,0,0,0,2.72,10.68,51.43,51.43,0,0,0,4.35,8.46,29.34,29.34,0,0,0,7.73,8.09,36.68,36.68,0,0,0,10.69,4.89c.76.23,1.67.46,2.8.71a18.41,18.41,0,0,0,4.06.42,20.84,20.84,0,0,0,4.62-.52,15.15,15.15,0,0,0,5.06-2.18c2.28-1.5,4.17-2.82,5.63-3.91s2.73-2.14,3.74-3.07,1.82-1.7,2.55-2.44l.36-.38c.54-.55,1.1-1.12,1.66-1.71a44.71,44.71,0,0,0,3.42-3.9c1.34-1.66,2.72-3.53,4.11-5.55s2.81-4.27,4.13-6.58a49.62,49.62,0,0,0,3.31-7,26.21,26.21,0,0,0,1.63-6.7,9.73,9.73,0,0,0-1.39-6.39,7.2,7.2,0,0,0-2.26-2.2,8.9,8.9,0,0,0-2.69-1.11,8.56,8.56,0,0,0-2.9-.18,6.43,6.43,0,0,0-2.92,1l-2.11,1.39-.31.68c-1.5,3.27-3,6.4-4.42,9.31a67.78,67.78,0,0,1-4.77,8.16,56.17,56.17,0,0,1-6,7.28,47.51,47.51,0,0,1-7.91,6.43,9.71,9.71,0,0,1-3.31,1.48,4.18,4.18,0,0,1-2.62-.41,21.9,21.9,0,0,1-3.58-2.18,13.85,13.85,0,0,1-3.27-3.61,34.3,34.3,0,0,1-3.47-6.79,39.38,39.38,0,0,1-1.95-7.29,56,56,0,0,1-.72-7.86,82.36,82.36,0,0,1,.27-8.26c.26-1.87.6-3.95,1-6.26s1-4.83,1.65-7.39,1.43-5.17,2.29-7.77a66.12,66.12,0,0,1,2.85-7.26,37.05,37.05,0,0,1,3.37-5.88,15.56,15.56,0,0,1,2.55-2.84l.92-.78,1,.74a10.84,10.84,0,0,1,.94.8,10.88,10.88,0,0,0,2.35,1.69,7.77,7.77,0,0,0,3,.86,6.33,6.33,0,0,0,3.93-1.18,13.56,13.56,0,0,0,1.48-1.1,5.14,5.14,0,0,0,1.71-2.74,6.23,6.23,0,0,0-.46-3.69,20.15,20.15,0,0,0-1.85-3.35,17,17,0,0,0-4.78-4.86,17.64,17.64,0,0,0-6-2.59h0A16.82,16.82,0,0,0,456.65,323.28Z"/>
            </g>
            <g>
              <path d="M565.21,289.57a43.14,43.14,0,0,0-11.3-11.79,35.89,35.89,0,0,0-14.58-6.06,19.73,19.73,0,0,0-7.5.15,20.13,20.13,0,0,0-7,2.9,36,36,0,0,0-3,2.18,12.89,12.89,0,0,0-2.78,3.1,6.5,6.5,0,0,0-.59,1.18,12.65,12.65,0,0,0-4.2.18,17.75,17.75,0,0,0-8.74,5.38,17,17,0,0,0-3,5.07l-.09.23c-1.29,3.82-2.46,7.88-3.46,12.09s-1.84,8.57-2.49,13-1.09,8.9-1.34,13.31a123,123,0,0,0,0,13.16,106.42,106.42,0,0,0,1.39,12.46,67.82,67.82,0,0,0,3,11.38,46.84,46.84,0,0,0,2.31,5.49,50,50,0,0,0,2.84,4.95,35.42,35.42,0,0,0,8.64,9.28,28.32,28.32,0,0,0,10.83,4.89,28.69,28.69,0,0,0,12.09-.12,36.29,36.29,0,0,0,12.18-5.31,54,54,0,0,0,11.24-9.91A65.36,65.36,0,0,0,568,364.29a72.52,72.52,0,0,0,5.53-14.2,78.88,78.88,0,0,0,2.58-15.22,81.73,81.73,0,0,0-.41-15.55,72.65,72.65,0,0,0-3.5-15.16A65.45,65.45,0,0,0,565.21,289.57ZM540,292.48a13.85,13.85,0,0,1,4.6,2.91,28,28,0,0,1,4.26,5.09,40.71,40.71,0,0,1,2.31,4,30,30,0,0,1,1.76,4.29,66.62,66.62,0,0,1,2.91,12.46,68.18,68.18,0,0,1,.54,12.2,58.4,58.4,0,0,1-1.62,11.29,54,54,0,0,1-3.53,10,37.89,37.89,0,0,1-5.11,8.08,26.7,26.7,0,0,1-12.06,8.54,12.56,12.56,0,0,1-4.87.56,8.79,8.79,0,0,1-4-1.38,12,12,0,0,1-3.55-3.66,24.94,24.94,0,0,1-2.32-4.74,53.21,53.21,0,0,1-2.73-11.26,102.63,102.63,0,0,1-.93-13.32,128.13,128.13,0,0,1,.69-13.93c.5-4.7,1.16-9.22,2-13.43l0-.18a10.41,10.41,0,0,1,.36-1.43c.22-.71.47-1.43.75-2.15.1-.26.21-.52.31-.77a10.76,10.76,0,0,0,2,.06,8.15,8.15,0,0,0,4-1.36,11.53,11.53,0,0,0,3.06-2.83,9.55,9.55,0,0,0,1.81-6.46c0-.55-.1-1.08-.17-1.56a12.77,12.77,0,0,1,4.52-1.58A10.65,10.65,0,0,1,540,292.48Z" style="fill: #d9cfff"/>
              <path d="M529.76,394.16a29,29,0,0,1-6-.62,29.8,29.8,0,0,1-11.4-5.15,36.77,36.77,0,0,1-9-9.67,49,49,0,0,1-2.93-5.1,46.55,46.55,0,0,1-2.38-5.67,69.35,69.35,0,0,1-3-11.61,109.76,109.76,0,0,1-1.41-12.64,123.38,123.38,0,0,1,0-13.32c.24-4.46.7-9,1.35-13.44s1.49-8.85,2.51-13.11,2.19-8.36,3.5-12.22l.11-.28a18.64,18.64,0,0,1,3.32-5.55A19.15,19.15,0,0,1,514,280a14.13,14.13,0,0,1,3.61-.3c.08-.14.16-.28.25-.42a14.68,14.68,0,0,1,3.09-3.44,36.63,36.63,0,0,1,3.09-2.27,21.61,21.61,0,0,1,7.5-3.12,21.24,21.24,0,0,1,8.06-.15,37.31,37.31,0,0,1,15.19,6.3,44.62,44.62,0,0,1,11.69,12.19h0a67.4,67.4,0,0,1,7.14,14.93,74.84,74.84,0,0,1,3.57,15.47,83,83,0,0,1,.41,15.83A79.68,79.68,0,0,1,575,350.49,73.58,73.58,0,0,1,569.31,365a66.73,66.73,0,0,1-8.57,12.72,55.17,55.17,0,0,1-11.56,10.19,38,38,0,0,1-12.68,5.53A32,32,0,0,1,529.76,394.16ZM516.9,282.64a11,11,0,0,0-2.27.23,16.37,16.37,0,0,0-7.95,4.93,15.3,15.3,0,0,0-2.76,4.63l-.07.19c-1.27,3.73-2.42,7.75-3.41,11.91S498.61,313,498,317.37s-1.09,8.8-1.33,13.17a120,120,0,0,0,0,13A102,102,0,0,0,498,355.83,65.94,65.94,0,0,0,500.88,367a47.61,47.61,0,0,0,2.24,5.33,49.05,49.05,0,0,0,2.76,4.8,33.88,33.88,0,0,0,8.27,8.89,26.62,26.62,0,0,0,10.26,4.63,27.15,27.15,0,0,0,11.45-.11,35.09,35.09,0,0,0,11.67-5.1,52.22,52.22,0,0,0,10.94-9.64,63.7,63.7,0,0,0,8.18-12.15,71,71,0,0,0,5.41-13.9,76.91,76.91,0,0,0,2.53-14.93,80.44,80.44,0,0,0-.4-15.27,71.1,71.1,0,0,0-3.43-14.85,63.78,63.78,0,0,0-6.8-14.26A41.61,41.61,0,0,0,553.05,279a34.39,34.39,0,0,0-14-5.81,18.18,18.18,0,0,0-6.93.14,18.6,18.6,0,0,0-6.47,2.69,33.87,33.87,0,0,0-2.84,2.08,11.24,11.24,0,0,0-2.45,2.73,4.58,4.58,0,0,0-.46.91l-.4,1.1-1.17-.13C517.85,282.67,517.37,282.64,516.9,282.64Zm13.29,90.82c-.39,0-.77,0-1.15,0a10.37,10.37,0,0,1-4.65-1.61,13.35,13.35,0,0,1-4-4.11,26.37,26.37,0,0,1-2.48-5,55.12,55.12,0,0,1-2.8-11.59,103.94,103.94,0,0,1-1-13.52,128.5,128.5,0,0,1,.7-14.1c.5-4.74,1.17-9.3,2-13.55l0-.15a10.86,10.86,0,0,1,.41-1.62c.22-.75.49-1.5.78-2.25.11-.29.22-.56.34-.83l.44-1,1.1.12a9.72,9.72,0,0,0,1.69.05,6.58,6.58,0,0,0,3.28-1.12,9.93,9.93,0,0,0,2.66-2.45,8,8,0,0,0,1.54-5.46c-.05-.52-.1-1-.16-1.48l-.14-1,.9-.5a14.21,14.21,0,0,1,5.07-1.75,12.12,12.12,0,0,1,5.73.63h0a15.33,15.33,0,0,1,5.11,3.22,30.31,30.31,0,0,1,4.49,5.37,43.46,43.46,0,0,1,2.39,4.19,31.11,31.11,0,0,1,1.85,4.5,69,69,0,0,1,3,12.73,70.15,70.15,0,0,1,.55,12.46,59,59,0,0,1-1.67,11.58,55.43,55.43,0,0,1-3.62,10.26,39.26,39.26,0,0,1-5.32,8.39,28.16,28.16,0,0,1-12.77,9A14.9,14.9,0,0,1,530.19,373.46Zm-9.43-66.23c-.23.6-.44,1.2-.62,1.79a10,10,0,0,0-.31,1.2l0,.21c-.81,4.21-1.46,8.68-1.95,13.35a122.45,122.45,0,0,0-.69,13.77,101.15,101.15,0,0,0,.92,13.11,52.61,52.61,0,0,0,2.64,10.95,23.86,23.86,0,0,0,2.18,4.44,10.46,10.46,0,0,0,3.08,3.21,7.47,7.47,0,0,0,3.35,1.16,11,11,0,0,0,4.28-.51A25.18,25.18,0,0,0,545,361.85a36.84,36.84,0,0,0,4.91-7.76,51.59,51.59,0,0,0,3.42-9.7,56.09,56.09,0,0,0,1.58-11,66.11,66.11,0,0,0-.53-11.93,65.29,65.29,0,0,0-2.84-12.19,28.25,28.25,0,0,0-1.68-4.08,39.38,39.38,0,0,0-2.22-3.89,26.16,26.16,0,0,0-4-4.82,12.32,12.32,0,0,0-4.11-2.61,9.23,9.23,0,0,0-4.33-.46,10.32,10.32,0,0,0-3.09.95q0,.27.06.57A11.1,11.1,0,0,1,530,302.4a13,13,0,0,1-3.46,3.21,9.54,9.54,0,0,1-4.75,1.61C521.46,307.24,521.11,307.24,520.76,307.23Z"/>
            </g>
            <g>
              <path d="M651.66,188.79a9.72,9.72,0,0,0-4.45-1.2c-3.56-.08-7.1,2.39-9.47,6.28a34.76,34.76,0,0,0-2.8,5.77,53.09,53.09,0,0,0-2,6.54c-.52,2.19-1,4.4-1.34,6.58s-.65,4.17-.87,6.07-.39,3.5-.5,4.87l-.17,2c-.1,1.44-.22,3.31-.35,5.62s-.26,4.84-.39,7.61-.23,5.62-.33,8.56c0,.35,0,.7,0,1.06l-7.07-17.52c-.34-.87-.69-1.72-1.06-2.51a19.9,19.9,0,0,0-1.42-2.56,18.43,18.43,0,0,0-4.46-4.78,15.77,15.77,0,0,0-5.61-2.65,14.55,14.55,0,0,0-6.2-.13,16.34,16.34,0,0,0-5.92,2.46,14.74,14.74,0,0,0-4.13,4.31,36.3,36.3,0,0,0-2.79,5.36,54.92,54.92,0,0,0-2.13,6.08c-.6,2-1.13,4.09-1.59,6.08s-.85,3.92-1.14,5.73-.49,3.15-.68,4.4a138.22,138.22,0,0,0-1,13.82c-.11,4.92,0,10.09.24,15.35s.7,10.6,1.27,15.93,1.28,10.62,2.12,15.61,1.79,9.83,2.83,14.27a123.39,123.39,0,0,0,3.42,12.05l0,.08a16.27,16.27,0,0,0,1.63,3.29,10.87,10.87,0,0,0,6.31,4.72c2.81.78,5.76.18,8.75-1.79a9.69,9.69,0,0,0,3.62-4.43,9.52,9.52,0,0,0,.54-6c-1.57-6.49-2.91-12.28-4-17.2s-2-9.2-2.66-12.77-1.23-6.52-1.59-8.88-.64-4.35-.83-5.91-.32-2.7-.39-3.57-.16-1.71-.23-2.32c-.31-2.33-.61-5-.88-8s-.48-6.12-.6-9.31-.13-6.33,0-9.43a63.91,63.91,0,0,1,.82-8.44,29,29,0,0,1,1.76-6.34l.08-.2c.41.71.83,1.51,1.24,2.38.7,1.45,1.37,3,2,4.6s1.3,3.33,1.9,5,1.19,3.23,1.67,4.52c1.7,4.79,3.28,9.42,4.72,13.75s2.83,8.57,4.17,12.63,2.66,8.07,3.95,12,2.66,7.8,4.07,11.72c.36,1,.74,2,1.17,3a20.67,20.67,0,0,0,1.83,3.49A13.18,13.18,0,0,0,634.9,319a9.14,9.14,0,0,0,3.19,1.91,8.38,8.38,0,0,0,4.06.3,10.41,10.41,0,0,0,4.06-1.66,8.6,8.6,0,0,0,3.76-6.81,31.91,31.91,0,0,0-.2-6.62c-.29-2.22-.67-4.46-1.14-6.66a33,33,0,0,1-.73-4.74c-.19-2.95-.3-6.14-.35-9.48s0-6.84,0-10.26.1-7,.14-10.43.06-6.78,0-9.91c0-3.86,0-7.83.22-11.8s.47-7.85.84-11.52c.34-3.25.77-6.33,1.3-9.17l24,61.24.34.45a12.58,12.58,0,0,0,2.46,2.42,13.55,13.55,0,0,0,3.34,1.87,11.73,11.73,0,0,0,3.75.8,7.63,7.63,0,0,0,4.58-1.21,9.36,9.36,0,0,0,3.91-5.09,13.43,13.43,0,0,0,.55-5.07,19.45,19.45,0,0,0-.87-4.33c-.38-1.16-.69-2.07-1-2.78q-.79-2-2.29-5.46c-1-2.3-2.13-4.9-3.4-7.81s-2.63-6-4.09-9.34-2.94-6.73-4.45-10.16l-4.46-10.09q-2.19-5-4.05-9.23c-1.26-2.87-2.37-5.4-3.35-7.6s-1.64-3.7-2.13-4.87c-.56-1.62-1.27-3.39-2.09-5.25a40.85,40.85,0,0,0-3.1-5.69,27.86,27.86,0,0,0-2.57-3.34A13.73,13.73,0,0,0,651.66,188.79Z" style="fill: #d9cfff"/>
              <path d="M604.05,349.82a10.5,10.5,0,0,1-2.83-.39,12.43,12.43,0,0,1-7.17-5.35,18.47,18.47,0,0,1-1.77-3.59l0-.1a121.89,121.89,0,0,1-3.47-12.21c-1-4.46-2-9.3-2.85-14.36s-1.56-10.3-2.13-15.7-1-10.74-1.28-16-.35-10.5-.24-15.46.46-9.73,1-14c.19-1.29.42-2.73.69-4.45s.68-3.79,1.16-5.83,1-4.09,1.61-6.16a56.37,56.37,0,0,1,2.19-6.24,36.09,36.09,0,0,1,2.91-5.59,16.15,16.15,0,0,1,4.57-4.75,17.77,17.77,0,0,1,6.46-2.68,15.88,15.88,0,0,1,6.83.14,17.16,17.16,0,0,1,6.15,2.9,20.12,20.12,0,0,1,4.83,5.17,21,21,0,0,1,1.52,2.75c.39.82.75,1.7,1.1,2.61l4.43,11q.06-1.32.12-2.61c.12-2.77.25-5.32.38-7.62s.25-4.2.35-5.64l.17-2.07c.12-1.4.29-3.06.51-4.92s.52-4,.88-6.13.83-4.47,1.36-6.69a55,55,0,0,1,2-6.72,36.62,36.62,0,0,1,2.92-6c2.72-4.47,6.77-7.09,10.78-7a11.19,11.19,0,0,1,5.13,1.38h0a14.84,14.84,0,0,1,3.9,3.11,28.24,28.24,0,0,1,2.72,3.53,41.26,41.26,0,0,1,3.22,5.9c.83,1.88,1.55,3.67,2.12,5.32.49,1.16,1.2,2.76,2.11,4.8,1,2.21,2.09,4.74,3.34,7.61s2.59,5.92,4.05,9.22l4.46,10.1q2.26,5.13,4.46,10.16t4.08,9.34q1.92,4.37,3.4,7.81c1,2.32,1.78,4.17,2.31,5.5.29.74.62,1.68,1,2.87a20.12,20.12,0,0,1,.93,4.68,14.71,14.71,0,0,1-.61,5.62,10.76,10.76,0,0,1-4.52,5.91,9,9,0,0,1-5.47,1.46,13.3,13.3,0,0,1-4.22-.9,14.89,14.89,0,0,1-3.71-2.08,13.88,13.88,0,0,1-2.75-2.71l-.46-.61-22-56.29q-.24,1.78-.42,3.63c-.38,3.64-.66,7.49-.84,11.44s-.25,7.89-.22,11.72c0,3.1,0,6.44,0,9.94s-.09,6.94-.14,10.43,0,6.85,0,10.22.16,6.49.35,9.41a31.28,31.28,0,0,0,.7,4.51c.48,2.24.87,4.52,1.16,6.79a34.22,34.22,0,0,1,.21,6.93,10,10,0,0,1-4.44,7.94,11.77,11.77,0,0,1-4.65,1.89,9.8,9.8,0,0,1-4.77-.36,10.62,10.62,0,0,1-3.72-2.22,14.73,14.73,0,0,1-2.39-2.83,22.31,22.31,0,0,1-2-3.75c-.43-1.07-.83-2.11-1.19-3.09-1.42-3.94-2.79-7.9-4.08-11.76s-2.62-7.87-4-12-2.72-8.28-4.17-12.63-3-8.92-4.7-13.72c-.48-1.27-1-2.8-1.67-4.51s-1.22-3.27-1.89-4.93c-.51-1.28-1-2.52-1.58-3.7-.25.92-.46,1.91-.64,3a60.76,60.76,0,0,0-.8,8.23c-.1,3.07-.1,6.2,0,9.32s.32,6.28.59,9.23.57,5.68.88,8c.08.65.15,1.42.23,2.4s.2,2,.39,3.51.45,3.39.82,5.86.89,5.3,1.58,8.82,1.59,7.84,2.65,12.75,2.41,10.7,4,17.16a11.5,11.5,0,0,1-4.79,12A13,13,0,0,1,604.05,349.82ZM606,219.67a13.76,13.76,0,0,0-2.55.24,15,15,0,0,0-5.38,2.24,13.26,13.26,0,0,0-3.69,3.88,33.12,33.12,0,0,0-2.66,5.12,53.91,53.91,0,0,0-2.08,5.91c-.59,2-1.12,4-1.57,6s-.84,3.87-1.12,5.62-.49,3.15-.68,4.39a136.61,136.61,0,0,0-1,13.64c-.11,4.89,0,10,.24,15.23s.7,10.55,1.26,15.85,1.28,10.56,2.11,15.53,1.78,9.76,2.81,14.17a118.13,118.13,0,0,0,3.38,11.89,15.48,15.48,0,0,0,1.49,3.05,9.51,9.51,0,0,0,5.46,4.1c2.38.66,4.91.12,7.53-1.6a8.35,8.35,0,0,0,3.06-3.76,8.11,8.11,0,0,0,.46-5.07c-1.56-6.46-2.9-12.25-4-17.21s-2-9.23-2.67-12.8-1.23-6.57-1.59-9-.65-4.44-.84-5.95-.32-2.75-.4-3.62-.15-1.68-.22-2.27c-.31-2.32-.61-5.05-.89-8.09s-.47-6.15-.6-9.38-.13-6.41,0-9.55a65.42,65.42,0,0,1,.84-8.63,31.33,31.33,0,0,1,1.85-6.67l1.31-2.91,1.46,2.54c.43.74.86,1.57,1.3,2.48.7,1.48,1.39,3.05,2,4.7s1.32,3.37,1.92,5,1.19,3.23,1.67,4.51c1.71,4.85,3.3,9.48,4.73,13.81s2.84,8.57,4.17,12.64,2.66,8.06,4,11.94,2.64,7.77,4,11.7c.35.95.73,1.94,1.15,3a18.16,18.16,0,0,0,1.7,3.24,11.15,11.15,0,0,0,1.9,2.26,7.54,7.54,0,0,0,2.66,1.59,6.79,6.79,0,0,0,3.34.25,8.81,8.81,0,0,0,3.47-1.44,7.11,7.11,0,0,0,3.1-5.68,30.25,30.25,0,0,0-.2-6.3c-.28-2.18-.65-4.38-1.12-6.54a35.6,35.6,0,0,1-.76-5c-.18-3-.3-6.17-.35-9.55s0-6.86,0-10.3.1-7,.14-10.43.06-6.81,0-9.88c0-3.88,0-7.87.23-11.88s.46-7.91.84-11.6c.34-3.3.78-6.42,1.32-9.3l1-5.16,25.79,65.94.22.29a11.28,11.28,0,0,0,2.17,2.13,12.34,12.34,0,0,0,3,1.66,10.63,10.63,0,0,0,3.28.71,6.11,6.11,0,0,0,3.69-1,7.92,7.92,0,0,0,3.31-4.28,11.88,11.88,0,0,0,.48-4.5,17.32,17.32,0,0,0-.79-4c-.38-1.15-.69-2-1-2.71-.52-1.29-1.29-3.12-2.27-5.41s-2.12-4.9-3.4-7.8-2.63-6-4.08-9.34l-4.45-10.15-4.46-10.1q-2.19-4.95-4.06-9.23t-3.34-7.59q-1.4-3.14-2.14-4.89l0-.1c-.55-1.58-1.23-3.31-2-5.13a38.4,38.4,0,0,0-3-5.48,26.5,26.5,0,0,0-2.42-3.15,11.91,11.91,0,0,0-3.12-2.49,8.22,8.22,0,0,0-3.76-1c-2.9-.07-6,2-8.16,5.56a32.65,32.65,0,0,0-2.67,5.53,51.05,51.05,0,0,0-1.94,6.34c-.52,2.16-1,4.35-1.32,6.49s-.64,4.12-.86,6-.38,3.45-.5,4.82l-.17,2c-.1,1.42-.21,3.28-.34,5.59s-.26,4.83-.39,7.58-.24,5.61-.33,8.55l-.26,8.16-9.74-24.1c-.34-.88-.68-1.69-1-2.45a18,18,0,0,0-1.31-2.36,16.67,16.67,0,0,0-4.1-4.4A14,14,0,0,0,609,220,12.79,12.79,0,0,0,606,219.67Z"/>
            </g>
            <g>
              <path d="M713,226.3c-.48-1.54-.9-3-1.27-4.21s-.69-2.39-1-3.48-.63-2.31-1-3.43c-1.23-4.08-2.34-8-3.3-11.77l-3-11.48c-.53-2-1-4.05-1.47-6s-.93-4-1.41-5.85-1-3.64-1.56-5.22a20.7,20.7,0,0,0-2.18-4.62,12.47,12.47,0,0,0-5.27-4.59,13.05,13.05,0,0,0-6.7-1.11l-1,.09-.86.56a15.57,15.57,0,0,0-4.86,5,12.2,12.2,0,0,0-1.56,7.74l.05.53.19.49c1.17,3.08,2.25,6.09,3.21,8.94s1.91,5.78,2.77,8.62c.39,1.35.88,3,1.47,4.88s1.18,3.88,1.82,6,1.34,4.49,2.08,6.86,1.45,4.69,2.17,7,1.45,4.56,2.17,6.71,1.41,4.1,2,5.86l12.86,34.71c.14.34.28.65.41.91a10.92,10.92,0,0,0,.56,1,9.87,9.87,0,0,0,2.86,2.86,10.86,10.86,0,0,0,3.34,1.47,6.65,6.65,0,0,0,4.43-.39,16.23,16.23,0,0,0,2.44-1.33,11.63,11.63,0,0,0,2.68-2.5,13.41,13.41,0,0,0,2.8-7,10.54,10.54,0,0,0-.54-4.44c-.9-2.55-1.86-5.07-2.89-7.48s-2-4.73-3.1-7-2-4.46-3-6.69-1.86-4.42-2.71-6.67C714,229.47,713.45,227.78,713,226.3Z" style="fill: #d9cfff"/>
              <path d="M716.28,276.55a7.68,7.68,0,0,1-2-.27,12.73,12.73,0,0,1-3.77-1.66,11.13,11.13,0,0,1-3.29-3.3,10.78,10.78,0,0,1-.65-1.12c-.15-.29-.31-.64-.46-1l-12.87-34.75c-.65-1.76-1.35-3.75-2.07-5.91s-1.46-4.42-2.18-6.73-1.45-4.64-2.18-7-1.43-4.67-2.08-6.88-1.24-4.18-1.82-6-1.08-3.55-1.47-4.91c-.86-2.83-1.79-5.71-2.75-8.55s-2-5.82-3.19-8.89l-.28-.87-.05-.52a13.59,13.59,0,0,1,1.76-8.66,17,17,0,0,1,5.33-5.53l1.17-.77,1.39-.13a14.5,14.5,0,0,1,7.47,1.25,14,14,0,0,1,5.89,5.12,22.22,22.22,0,0,1,2.35,5c.56,1.62,1.09,3.41,1.6,5.33s.95,3.81,1.42,5.9c.43,1.94.92,3.94,1.45,5.94l3,11.5c.95,3.71,2,7.65,3.27,11.71.35,1.13.68,2.3,1,3.48s.61,2.22,1,3.44.79,2.65,1.26,4.19h0c.45,1.45,1,3.12,1.72,4.95.83,2.23,1.73,4.45,2.68,6.59s2,4.49,3,6.67c1.08,2.33,2.13,4.7,3.13,7.06s2,5,2.91,7.58a11.77,11.77,0,0,1,.62,5.08,14.69,14.69,0,0,1-1,4.14,15.19,15.19,0,0,1-2.09,3.61,13.25,13.25,0,0,1-3,2.83,17.77,17.77,0,0,1-2.66,1.45A8.64,8.64,0,0,1,716.28,276.55Zm-38.12-98.4.12.31c1.18,3.1,2.26,6.13,3.23,9s1.91,5.77,2.79,8.66c.39,1.36.88,3,1.46,4.88s1.19,3.89,1.83,6.07,1.34,4.48,2.07,6.84,1.45,4.69,2.17,7,1.45,4.55,2.16,6.68,1.4,4.09,2,5.82l12.86,34.71c.1.25.22.52.34.75s.3.55.48.83a8.36,8.36,0,0,0,2.42,2.43,9.83,9.83,0,0,0,2.88,1.27,5.25,5.25,0,0,0,3.47-.31,15,15,0,0,0,2.21-1.21,9.92,9.92,0,0,0,2.33-2.18,11.91,11.91,0,0,0,1.67-2.88,11.63,11.63,0,0,0,.81-3.31,8.85,8.85,0,0,0-.46-3.8c-.88-2.52-1.84-5-2.85-7.39s-2-4.67-3.08-7-2-4.46-3-6.72-1.89-4.46-2.74-6.75c-.71-1.88-1.31-3.61-1.78-5.12h0c-.48-1.55-.9-3-1.27-4.23s-.7-2.42-1-3.51-.62-2.28-1-3.38c-1.23-4.1-2.35-8.08-3.31-11.84l-2.95-11.48c-.54-2-1-4.07-1.48-6.05s-.93-4-1.4-5.79-1-3.57-1.52-5.11a19.28,19.28,0,0,0-2-4.29,10.91,10.91,0,0,0-4.63-4,11.55,11.55,0,0,0-5.94-1l-.65.06-.54.36a13.84,13.84,0,0,0-4.4,4.55,10.68,10.68,0,0,0-1.36,6.81Z"/>
            </g>
            <g>
              <path d="M736.57,240.89c.61,1.83,1,3.13,1.28,3.9a10.64,10.64,0,0,0,1.16,2.68,9.48,9.48,0,0,0,2.77,2.68,14,14,0,0,0,3.21,1.6,11.8,11.8,0,0,0,3.69.69,7.56,7.56,0,0,0,4.48-1.19,9.11,9.11,0,0,0,3.65-5.13,12.23,12.23,0,0,0-.1-6.93l-.05-.16c-.15-.46-.43-1.43-.83-2.9s-.92-3.33-1.47-5.25-1.07-3.78-1.6-5.67-.92-3.35-1.23-4.58q-.62-2.32-1.68-6.08c-.71-2.5-1.49-5.2-2.36-8.11l-2.67-9c-.92-3.11-1.81-6.06-2.67-8.83s-1.62-5.23-2.3-7.42c-.59-1.93-1.08-3.46-1.43-4.57,3.35,3,6.88,6.08,10.53,9.21,4.9,4.2,10,8.25,15.32,12a161.14,161.14,0,0,0,16.36,10.35,83.93,83.93,0,0,0,17.19,7.17,9.56,9.56,0,0,0,5.82-.09,14.11,14.11,0,0,0,8.65-7.32,19.2,19.2,0,0,0,1.69-6.4,32.68,32.68,0,0,0-.12-6.54c-.24-2.09-.59-4.15-1-6.09-.86-4.15-1.72-8.06-2.56-11.63s-1.66-7-2.45-10.13-1.61-6.23-2.41-9.08-1.57-5.58-2.34-8.27c-.45-1.52-1-3.44-1.75-5.74s-1.53-4.83-2.44-7.56-1.91-5.58-3-8.51-2.17-5.78-3.26-8.51-2.21-5.3-3.29-7.63a48.85,48.85,0,0,0-3.34-6.16,21,21,0,0,0-5.72-6.2,25.8,25.8,0,0,0-5.13-2.71l-1-.37-1,.15a15,15,0,0,0-3.57,1A16.21,16.21,0,0,0,766.79,99a6.3,6.3,0,0,0-2.76,4.32,10.35,10.35,0,0,0,.15,3.74,19.46,19.46,0,0,0,1,3.21c.39,1,.8,1.87,1.21,2.73s.82,1.64,1.19,2.3.59,1,.77,1.3c.71,1.32,1.5,3,2.34,4.85s1.79,4.14,2.64,6.28,1.7,4.34,2.48,6.48,1.47,4.06,2.06,5.79c2.43,7,4.47,13.14,6.09,18.3s3,9.72,4,13.56,1.88,7.17,2.49,9.9,1.14,5.27,1.55,7.45l.05.2c.06.26.13.53.21.82l-.9-.47a139.53,139.53,0,0,1-13.29-8.2c-4.32-3-8.48-6.08-12.37-9.12s-7.67-6.09-11.13-9-6.78-5.56-9.65-7.82a92.66,92.66,0,0,0-8-5.7,15.27,15.27,0,0,0-7.23-2.68,39.6,39.6,0,0,0-4.51-.4,11.91,11.91,0,0,0-11.1,7,13.25,13.25,0,0,0-1,5.48,20.06,20.06,0,0,0,.81,5c.41,1.37.83,2.67,1.26,3.85l18.92,65.61Z" style="fill: #d9cfff"/>
              <path d="M749,254h-.34a13.88,13.88,0,0,1-4.14-.77A15.84,15.84,0,0,1,741,251.4a11.07,11.07,0,0,1-3.2-3.11,12.16,12.16,0,0,1-1.33-3c-.24-.76-.66-2.05-1.27-3.87l-2.42-7-18.94-65.63c-.43-1.2-.86-2.51-1.27-3.9a21.64,21.64,0,0,1-.87-5.38,14.73,14.73,0,0,1,1.1-6.1,13.4,13.4,0,0,1,12.54-7.94,38.94,38.94,0,0,1,4.6.41,16.61,16.61,0,0,1,7.89,2.9,93.74,93.74,0,0,1,8.1,5.8c2.87,2.25,6.13,4.89,9.68,7.84s7.18,5.87,11.1,8.94,8,6.08,12.3,9.07c3.6,2.51,7.35,4.86,11.18,7-.33-1.63-.71-3.39-1.13-5.26-.6-2.7-1.43-6-2.47-9.84s-2.39-8.37-4-13.5-3.66-11.29-6.07-18.26c-.59-1.72-1.26-3.6-2.05-5.76s-1.62-4.3-2.47-6.45-1.73-4.23-2.62-6.22-1.6-3.46-2.29-4.75c-.14-.21-.41-.67-.75-1.27s-.81-1.5-1.24-2.39-.85-1.83-1.25-2.82a20.78,20.78,0,0,1-1.09-3.45,11.59,11.59,0,0,1-.17-4.29A7.7,7.7,0,0,1,766,97.79,18,18,0,0,1,769,96.22,16.39,16.39,0,0,1,773,95.14l1.42-.21,1.35.51a27.78,27.78,0,0,1,5.44,2.86,22.77,22.77,0,0,1,6.14,6.63,51.21,51.21,0,0,1,3.44,6.35c1.09,2.36,2.21,5,3.32,7.7s2.2,5.61,3.28,8.56,2.08,5.82,3,8.54,1.74,5.3,2.45,7.59,1.3,4.24,1.75,5.76c.78,2.71,1.56,5.46,2.36,8.3s1.61,5.92,2.41,9.12,1.62,6.56,2.46,10.15,1.71,7.51,2.57,11.66c.43,2,.78,4.08,1,6.23a32.75,32.75,0,0,1,.12,6.84,20.62,20.62,0,0,1-1.82,6.9,15.46,15.46,0,0,1-9.53,8.11,11,11,0,0,1-6.72.11,85.71,85.71,0,0,1-17.49-7.29,162,162,0,0,1-16.52-10.46c-5.3-3.81-10.49-7.89-15.42-12.11-2.22-1.91-4.4-3.79-6.51-5.65.64,2,1.34,4.33,2.12,6.84.87,2.78,1.76,5.74,2.68,8.86l2.67,9c.87,2.92,1.65,5.63,2.36,8.13s1.27,4.55,1.69,6.1c.31,1.24.71,2.74,1.23,4.57s1.06,3.77,1.6,5.66l1.47,5.26c.4,1.48.67,2.41.81,2.84l0,.18a13.69,13.69,0,0,1,.11,7.81A10.58,10.58,0,0,1,754,252.5,8.94,8.94,0,0,1,749,254ZM724.81,148.4a10.48,10.48,0,0,0-9.29,6.08,11.84,11.84,0,0,0-.87,4.87,18.41,18.41,0,0,0,.75,4.63c.4,1.35.81,2.62,1.23,3.76l0,.1,18.92,65.61,2.41,7c.62,1.85,1,3.16,1.29,3.94a9.44,9.44,0,0,0,1,2.3,8.15,8.15,0,0,0,2.34,2.25,13.37,13.37,0,0,0,2.88,1.44,10.83,10.83,0,0,0,3.24.6,6,6,0,0,0,3.62-.95,7.68,7.68,0,0,0,3-4.31,10.71,10.71,0,0,0-.12-6.08l0-.13c-.15-.45-.42-1.4-.85-2.95s-.92-3.31-1.46-5.23-1.07-3.79-1.6-5.67-.93-3.38-1.25-4.63c-.4-1.52-1-3.54-1.66-6s-1.49-5.19-2.36-8.09-1.75-5.88-2.66-9-1.81-6-2.67-8.82-1.62-5.23-2.3-7.42c-.59-1.92-1.07-3.45-1.43-4.55l-1.71-5.27,4.14,3.69c3.31,3,6.85,6.06,10.5,9.19,4.87,4.17,10,8.19,15.22,12a157.75,157.75,0,0,0,16.22,10.26,82.35,82.35,0,0,0,16.88,7,8.13,8.13,0,0,0,4.93-.07,12.59,12.59,0,0,0,7.76-6.53,17.6,17.6,0,0,0,1.55-5.9,30.35,30.35,0,0,0-.11-6.23c-.24-2.05-.57-4.05-1-6-.86-4.13-1.72-8-2.56-11.6s-1.66-7-2.45-10.1-1.6-6.22-2.39-9-1.57-5.58-2.35-8.27c-.44-1.5-1-3.41-1.73-5.71s-1.52-4.8-2.43-7.53-1.9-5.54-3-8.46-2.16-5.77-3.24-8.46-2.19-5.26-3.26-7.57a49.22,49.22,0,0,0-3.23-6,19.89,19.89,0,0,0-5.3-5.78,24.29,24.29,0,0,0-4.83-2.54L774,98l-.66.1a13.41,13.41,0,0,0-3.21.89,15,15,0,0,0-2.55,1.29,4.8,4.8,0,0,0-2.11,3.31,8.64,8.64,0,0,0,.14,3.18,18,18,0,0,0,.94,3c.38.93.77,1.82,1.17,2.64s.79,1.58,1.15,2.22.56,1,.73,1.25c.78,1.44,1.58,3.1,2.44,5s1.8,4.16,2.66,6.33,1.71,4.37,2.5,6.52,1.48,4.09,2.07,5.82c2.43,7,4.48,13.16,6.1,18.34s3,9.75,4,13.61,1.89,7.23,2.5,10,1.14,5.28,1.57,7.49l0,.16c.05.21.12.46.2.73l.94,3.34-4-2.07a142.43,142.43,0,0,1-13.45-8.3c-4.34-3-8.52-6.11-12.43-9.17s-7.7-6.11-11.17-9-6.77-5.56-9.61-7.8a92.87,92.87,0,0,0-7.84-5.61,13.89,13.89,0,0,0-6.51-2.45l-.16,0a38.73,38.73,0,0,0-4.34-.38Z"/>
            </g>
            <g>
              <path d="M821.12,164.17a32.44,32.44,0,0,0,6.71,7.52,30.52,30.52,0,0,0,17.07,6.75,40.82,40.82,0,0,0,9.14-.37c.59-.07,1.23-.18,1.92-.32a14.72,14.72,0,0,0,2.85-.91c.92-.38,2-.88,3.17-1.53s2.57-1.47,4.18-2.52l0,0,10.15-10.41a87.55,87.55,0,0,0,8.43-14,76.71,76.71,0,0,0,5.55-15.59,67.48,67.48,0,0,0,1.79-16.4,55,55,0,0,0-2.83-16.67c-.38-1-.73-1.92-1.08-2.65A18.45,18.45,0,0,0,887,94.83a15.79,15.79,0,0,0-3.9-4.14A13.5,13.5,0,0,0,878,88.41a13.83,13.83,0,0,0-5.59,0,15.58,15.58,0,0,0-5.55,2.34A23.76,23.76,0,0,0,862.16,95c-1.44,1.65-2.86,3.42-4.22,5.26s-2.54,3.51-3.62,5.12c-.83,1.23-1.48,2.22-2,3a11.35,11.35,0,0,0-.91.92c-.41.47-.81,1-1.2,1.48s-.56.75-.81,1.07l-.07.09c-.75.64-1.69,1.45-2.85,2.42a21.79,21.79,0,0,0-3.83,4.19,14.38,14.38,0,0,0-2.42,5.73,10.18,10.18,0,0,0,1.73,7.58,12.88,12.88,0,0,0,2.63,2.93,10.57,10.57,0,0,0,3.71,2,10.41,10.41,0,0,0,4,.35,9.46,9.46,0,0,0,4.28-1.57,6.63,6.63,0,0,0,1.93-2c.3-.44.61-.91.92-1.39s.64-1,1-1.48c0-.07.09-.15.14-.21l.33-.35c.32-.39.94-1.16,1.84-2.33l3-3.89q1.72-2.25,3.64-4.78c.85-1.13,1.68-2.23,2.48-3.27q.09,3.43-.17,7A45.11,45.11,0,0,1,868,137.45c-.72,1.61-1.53,3.38-2.44,5.33s-1.81,3.64-2.83,5.39a40.81,40.81,0,0,1-3.21,4.7,10.1,10.1,0,0,1-6.2,4.16,20.4,20.4,0,0,1-3.72.48h-.09a23.5,23.5,0,0,1-7.4-1.73,10.4,10.4,0,0,1-4.37-4,27.73,27.73,0,0,1-3.81-9.82,58.68,58.68,0,0,1-1-12.93,86.51,86.51,0,0,1,1.61-14.29,100.9,100.9,0,0,1,3.82-14.17,84.61,84.61,0,0,1,5.5-12.4,41.92,41.92,0,0,1,6.12-8.64l1.16-.76.15-.06c.94.12,1.95.28,3,.48a27,27,0,0,0,4.06.47,9.86,9.86,0,0,0,5.88-1.73,10.92,10.92,0,0,0,1.69-1.38,5.28,5.28,0,0,0,1.38-4.85,11.51,11.51,0,0,0-.49-2.73c-.3-1-.52-1.68-.65-2.08a15.25,15.25,0,0,0-.75-1.79l-3.92-4.73A13.19,13.19,0,0,0,859,59a16.46,16.46,0,0,0-6.54-1.39,21.81,21.81,0,0,0-6.57,1A26,26,0,0,0,833.55,67a54.86,54.86,0,0,0-4.9,6.7,73.18,73.18,0,0,0-4,7.29c-1.16,2.43-2.22,4.79-3.15,7a102.6,102.6,0,0,0-4.14,12.17,119.73,119.73,0,0,0-2.83,13.41,121.52,121.52,0,0,0-1.28,13.83,96.88,96.88,0,0,0,.47,13.51,68.61,68.61,0,0,0,2.47,12.48A40.72,40.72,0,0,0,821.12,164.17Z" style="fill: #d9cfff"/>
              <path d="M847.81,180.05c-1,0-2,0-3-.12a32.24,32.24,0,0,1-9.44-2.14,32.71,32.71,0,0,1-8.46-4.93,34,34,0,0,1-7-7.87h0a42.74,42.74,0,0,1-5.09-11.18,70.73,70.73,0,0,1-2.52-12.75,96.93,96.93,0,0,1-.48-13.73,122.45,122.45,0,0,1,1.3-14,119.43,119.43,0,0,1,2.87-13.57,100.89,100.89,0,0,1,4.2-12.35c.93-2.25,2-4.63,3.17-7.09a75,75,0,0,1,4.07-7.43,55.8,55.8,0,0,1,5-6.89,27.57,27.57,0,0,1,13.09-8.88,23.56,23.56,0,0,1,7-1,18,18,0,0,1,7.13,1.52,14.5,14.5,0,0,1,2.65,1.53l.27.26,4.11,5a17.44,17.44,0,0,1,.81,2c.14.41.37,1.12.67,2.15a12.4,12.4,0,0,1,.55,3,6.76,6.76,0,0,1-1.81,6.08A12.52,12.52,0,0,1,865,79.19a11.35,11.35,0,0,1-6.76,2,28.73,28.73,0,0,1-4.29-.5c-.82-.15-1.62-.29-2.39-.4l-.64.42a41.05,41.05,0,0,0-5.78,8.21,83,83,0,0,0-5.39,12.18A97.81,97.81,0,0,0,836,115a85.88,85.88,0,0,0-1.58,14,56.91,56.91,0,0,0,1,12.6A26.11,26.11,0,0,0,839,151a8.92,8.92,0,0,0,3.72,3.44,22.25,22.25,0,0,0,6.92,1.61,21.07,21.07,0,0,0,3.36-.44,8.69,8.69,0,0,0,5.35-3.63,40.4,40.4,0,0,0,3.09-4.53c1-1.71,1.93-3.48,2.76-5.27s1.71-3.71,2.43-5.31a43.13,43.13,0,0,0,3.59-14.17c.06-.79.1-1.58.14-2.37q-1.79,2.35-3.41,4.46l-3,3.89c-.93,1.2-1.55,2-1.88,2.38l-.31.33,0,.08c-.3.48-.62,1-1,1.48l-.93,1.41a8.2,8.2,0,0,1-2.36,2.46,11.12,11.12,0,0,1-5,1.81,12.12,12.12,0,0,1-4.6-.41,11.83,11.83,0,0,1-4.24-2.25,14.14,14.14,0,0,1-2.95-3.27,11.64,11.64,0,0,1-1.94-8.67,15.91,15.91,0,0,1,2.66-6.32,23,23,0,0,1,4.1-4.48l2.72-2.31.77-1c.42-.56.85-1.1,1.28-1.59s.59-.63.88-.9c.48-.73,1.1-1.67,1.87-2.82,1.1-1.63,2.33-3.37,3.66-5.18S859.56,95.72,861,94a25,25,0,0,1,5.05-4.59,16.86,16.86,0,0,1,6.08-2.56,15.4,15.4,0,0,1,6.2,0A15.14,15.14,0,0,1,884,89.47,17.14,17.14,0,0,1,888.23,94a20.11,20.11,0,0,1,1.33,2.37c.37.79.74,1.7,1.13,2.79a56.61,56.61,0,0,1,2.92,17.16,69,69,0,0,1-1.83,16.76A78,78,0,0,1,886.12,149a89.25,89.25,0,0,1-8.57,14.26l-.13.16L867,174c-1.67,1.1-3.08,1.95-4.33,2.62s-2.34,1.19-3.29,1.58a16.31,16.31,0,0,1-3.14,1c-.71.15-1.4.26-2,.33A41.94,41.94,0,0,1,847.81,180.05Zm4.48-121a20.87,20.87,0,0,0-5.93.9,24.63,24.63,0,0,0-11.67,8,54.54,54.54,0,0,0-4.77,6.52,74.36,74.36,0,0,0-3.9,7.14c-1.15,2.41-2.2,4.75-3.12,7a100.76,100.76,0,0,0-4.07,12A113.69,113.69,0,0,0,816,113.79a116.21,116.21,0,0,0-1.27,13.65,95.42,95.42,0,0,0,.46,13.3A69.11,69.11,0,0,0,817.64,153a40,40,0,0,0,4.73,10.4h0a30.94,30.94,0,0,0,6.4,7.17,29.83,29.83,0,0,0,7.68,4.48,29.28,29.28,0,0,0,8.56,1.94,38.5,38.5,0,0,0,8.81-.36c.59-.07,1.2-.17,1.84-.3a14.26,14.26,0,0,0,2.57-.83c.87-.36,1.87-.84,3-1.46s2.44-1.39,4-2.39l10-10.21a86.11,86.11,0,0,0,8.22-13.71,74.58,74.58,0,0,0,5.44-15.29,65.44,65.44,0,0,0,1.75-16,54,54,0,0,0-2.75-16.22c-.35-1-.68-1.79-1-2.48a16.88,16.88,0,0,0-1.13-2,14.07,14.07,0,0,0-3.52-3.75,12,12,0,0,0-9.48-2.06,13.86,13.86,0,0,0-5,2.12,22.15,22.15,0,0,0-4.43,4c-1.41,1.63-2.81,3.36-4.14,5.17s-2.52,3.47-3.59,5.06c-.82,1.23-1.47,2.21-1.95,3l-.11.17-.15.13a8.37,8.37,0,0,0-.78.79c-.38.43-.75.89-1.13,1.39s-.58.77-.83,1.09l-.27.3c-.75.65-1.7,1.46-2.86,2.44a20.39,20.39,0,0,0-3.58,3.9,13,13,0,0,0-2.16,5.14,8.71,8.71,0,0,0,1.5,6.48,11.09,11.09,0,0,0,2.33,2.59,8.81,8.81,0,0,0,6.64,2,8.15,8.15,0,0,0,3.62-1.33,5.35,5.35,0,0,0,1.5-1.61c.3-.44.6-.9.91-1.38s.64-1,.93-1.45c.08-.12.14-.22.2-.3l.12-.14.34-.36c.26-.31.86-1.07,1.74-2.22l3-3.89q1.73-2.23,3.63-4.76l2.49-3.28,2.59-3.39.1,4.26a71.09,71.09,0,0,1-.18,7.13,46.62,46.62,0,0,1-3.83,15.17c-.74,1.63-1.55,3.41-2.46,5.36s-1.85,3.73-2.89,5.51a42.32,42.32,0,0,1-3.33,4.89,11.68,11.68,0,0,1-7.06,4.69,23.31,23.31,0,0,1-4,.51h-.19a25.53,25.53,0,0,1-8-1.87,11.82,11.82,0,0,1-5-4.54,29.09,29.09,0,0,1-4-10.35A60.36,60.36,0,0,1,831.37,129,88.55,88.55,0,0,1,833,114.45a102.54,102.54,0,0,1,3.89-14.38,85,85,0,0,1,5.6-12.63,44.08,44.08,0,0,1,6.34-9l.27-.22,1.59-1,.35-.14.38,0c1,.13,2,.29,3.07.5a25.36,25.36,0,0,0,3.83.44,8.36,8.36,0,0,0,5-1.48,8.48,8.48,0,0,0,1.45-1.18,3.78,3.78,0,0,0,1-3.51l0-.22a9.53,9.53,0,0,0-.43-2.37q-.43-1.44-.63-2a14.08,14.08,0,0,0-.6-1.47l-3.68-4.44a11,11,0,0,0-2-1.1,14.94,14.94,0,0,0-5.95-1.27Z"/>
            </g>
          </g>
          <g>
            <g>
              <path d="M652.41,403.9c.41-2.3,1-4.8,1.69-7.45a52.3,52.3,0,0,1,2.69-7.56,40.43,40.43,0,0,1,3.79-6.74,18,18,0,0,1,4.61-4.63,4.64,4.64,0,0,1,1.27-.62c.66-.2,1.32-.39,2-.56s1.6-.44,2.41-.72a12.25,12.25,0,0,0,2.91-1.47,5.61,5.61,0,0,0,1.53-1.54,5.41,5.41,0,0,0,.82-2.37,6.66,6.66,0,0,0-.23-2.51,9,9,0,0,0-1.22-2.54,9.93,9.93,0,0,0-3.63-3.33,10.38,10.38,0,0,0-4.45-1.18,13.21,13.21,0,0,0-4.48.64,16.27,16.27,0,0,0-4.19,2.05,35.26,35.26,0,0,0-5.67,4.76,32.1,32.1,0,0,0-4.71,6.25c-.91,1.57-1.84,3.36-2.77,5.33s-1.82,4.1-2.66,6.33-1.58,4.55-2.22,6.88a65.31,65.31,0,0,0-1.53,7,37,37,0,0,0-.46,6.87,22,22,0,0,0,1.07,6.42c.25.72.56,1.46.89,2.19a17.08,17.08,0,0,0,1.35,2.4,11,11,0,0,0,1.85,2.13,16.21,16.21,0,0,0,1.75,1.35,14.63,14.63,0,0,0,5,2,14.88,14.88,0,0,0,4.83.18,17.13,17.13,0,0,0,4.29-1.11,19.33,19.33,0,0,0,3.59-1.88c.63-.42,1.36-.94,2.2-1.54l2.52-1.85,2.52-1.87c.78-.59,1.47-1.08,2.07-1.48a22.31,22.31,0,0,1,2.85-1.63,10.8,10.8,0,0,1,2.45-.84,3.63,3.63,0,0,1,1.46,0l.69-2.92-.58,3a3.42,3.42,0,0,1,.39,1,13,13,0,0,1,.36,2.49,37.91,37.91,0,0,1,0,4.08q-.09,2.39-.52,5.66a24,24,0,0,1-1.22,5.34,27.83,27.83,0,0,1-2.26,4.88,24,24,0,0,1-3.07,4.12,19.22,19.22,0,0,1-7,4.9,30.6,30.6,0,0,1-3.59,1.08c-1.24.29-2.49.54-3.71.74s-2.66.51-3.89.83l-.49.13-.43.28a4.27,4.27,0,0,0-1.9,4.74,8.51,8.51,0,0,0,1.13,2.45,10.61,10.61,0,0,0,3.54,3.33A13.91,13.91,0,0,0,660.3,459a18.23,18.23,0,0,0,4.53.29,22.75,22.75,0,0,0,4.58-.73,28.53,28.53,0,0,0,4.28-1.5,25.53,25.53,0,0,0,3.86-2.13,30.59,30.59,0,0,0,7-6.51,39.91,39.91,0,0,0,4.89-8,47.49,47.49,0,0,0,3-9,57.29,57.29,0,0,0,1.39-9.29c.11-1.68.16-3.39.15-5.07a42.13,42.13,0,0,0-.31-5.08,27.26,27.26,0,0,0-1-4.87,17.56,17.56,0,0,0-2.12-4.45,15.16,15.16,0,0,0-5.36-5,15.71,15.71,0,0,0-6.48-1.9,18.91,18.91,0,0,0-6.66.8,23.07,23.07,0,0,0-6.2,3c-.75.5-1.57,1.09-2.53,1.79l-2.75,2c-.94.69-1.86,1.36-2.77,2s-1.7,1.2-2.42,1.68a4,4,0,0,1-2.17.79c-.28,0-.3,0-.41-.18a3.64,3.64,0,0,1-.48-1.38A7,7,0,0,1,652.41,403.9Z" style="fill: #d9cfff"/>
              <path d="M663.73,460.82a18.86,18.86,0,0,1-3.72-.35,15.06,15.06,0,0,1-4.68-1.74,12.15,12.15,0,0,1-4-3.79,10,10,0,0,1-1.33-2.89,5.78,5.78,0,0,1,2.5-6.38l.64-.43.75-.2c1.26-.32,2.61-.61,4-.85,1.2-.2,2.41-.44,3.62-.72a28.17,28.17,0,0,0,3.41-1,17.43,17.43,0,0,0,6.43-4.52,22.34,22.34,0,0,0,2.88-3.85,27.69,27.69,0,0,0,2.14-4.61,23.06,23.06,0,0,0,1.14-5c.29-2.14.45-4,.51-5.54a37.77,37.77,0,0,0,0-3.92,11.8,11.8,0,0,0-.32-2.21v0l-.22,0a9.89,9.89,0,0,0-2.1.72,21.12,21.12,0,0,0-2.65,1.52q-.87.59-2,1.44l-2.52,1.87c-.88.65-1.72,1.28-2.55,1.87s-1.59,1.14-2.23,1.57a21.35,21.35,0,0,1-3.86,2,18.86,18.86,0,0,1-4.67,1.2A16.18,16.18,0,0,1,644,422.56a17.68,17.68,0,0,1-1.94-1.49,12.46,12.46,0,0,1-2.1-2.43,18.6,18.6,0,0,1-1.48-2.61c-.35-.77-.67-1.55-.94-2.3a24.17,24.17,0,0,1-1.15-6.88,38.42,38.42,0,0,1,.48-7.16,68.84,68.84,0,0,1,1.56-7.17c.66-2.37,1.42-4.73,2.27-7s1.76-4.45,2.71-6.45,1.89-3.84,2.82-5.44a33.67,33.67,0,0,1,4.93-6.54,37.27,37.27,0,0,1,5.91-5,18.3,18.3,0,0,1,4.58-2.23,14.64,14.64,0,0,1,5-.71,12,12,0,0,1,5.09,1.35,11.56,11.56,0,0,1,4.18,3.83,10.17,10.17,0,0,1,1.41,3,7.9,7.9,0,0,1,.28,3.06,6.83,6.83,0,0,1-1.06,3,7.13,7.13,0,0,1-1.94,2,14.45,14.45,0,0,1-3.26,1.64c-.85.3-1.71.55-2.53.76-.65.16-1.3.34-1.94.53a3.3,3.3,0,0,0-.85.44,16.2,16.2,0,0,0-4.22,4.24,39,39,0,0,0-3.65,6.49,49.29,49.29,0,0,0-2.61,7.34c-.7,2.61-1.26,5.07-1.66,7.32h0a5.79,5.79,0,0,0-.08,1.86,1,1,0,0,1,0,.17,3.93,3.93,0,0,0,.71-.39c.71-.48,1.51-1,2.38-1.66l2.76-2,2.75-2c1-.72,1.82-1.32,2.58-1.83a24.69,24.69,0,0,1,6.6-3.15,20.1,20.1,0,0,1,7.2-.86,17.11,17.11,0,0,1,7.1,2.07,16.71,16.71,0,0,1,5.89,5.49,19.2,19.2,0,0,1,2.3,4.83,28.42,28.42,0,0,1,1.1,5.13,43.07,43.07,0,0,1,.32,5.26c0,1.71,0,3.45-.15,5.18a59.32,59.32,0,0,1-1.43,9.53,48.67,48.67,0,0,1-3.14,9.25,41.22,41.22,0,0,1-5.07,8.33,32.52,32.52,0,0,1-7.36,6.83,27.18,27.18,0,0,1-4.09,2.25,29.7,29.7,0,0,1-4.51,1.58,24.08,24.08,0,0,1-4.88.78C664.52,460.81,664.12,460.82,663.73,460.82ZM654.36,448l-.21.15a2.77,2.77,0,0,0-1.29,3.09,7.11,7.11,0,0,0,.93,2,9.12,9.12,0,0,0,3,2.86,12.31,12.31,0,0,0,3.76,1.4,16.66,16.66,0,0,0,4.16.27,21,21,0,0,0,4.27-.69,27.44,27.44,0,0,0,4.06-1.42,24.85,24.85,0,0,0,3.64-2,29.34,29.34,0,0,0,6.67-6.2,38,38,0,0,0,4.7-7.72,45.5,45.5,0,0,0,2.95-8.68,56.69,56.69,0,0,0,1.35-9c.11-1.66.16-3.33.15-5a39.2,39.2,0,0,0-.3-4.9,26.19,26.19,0,0,0-1-4.6,15.69,15.69,0,0,0-1.94-4.06A13.74,13.74,0,0,0,684.5,399a14.3,14.3,0,0,0-5.87-1.71,17.34,17.34,0,0,0-6.13.74,21.39,21.39,0,0,0-5.79,2.77c-.73.49-1.54,1.06-2.48,1.75l-2.75,2c-1,.7-1.88,1.38-2.79,2s-1.72,1.22-2.45,1.71a5.43,5.43,0,0,1-3,1,1.8,1.8,0,0,1-1.67-.85,4.93,4.93,0,0,1-.72-1.95,8.46,8.46,0,0,1,.08-2.9h0c.41-2.34,1-4.89,1.71-7.58a54.15,54.15,0,0,1,2.77-7.78,41.6,41.6,0,0,1,3.93-7,19.35,19.35,0,0,1,5-5,6.29,6.29,0,0,1,1.67-.82c.69-.2,1.37-.39,2.06-.57s1.52-.42,2.3-.69a10.74,10.74,0,0,0,2.55-1.29,4,4,0,0,0,1.11-1.13,3.79,3.79,0,0,0,.59-1.7,5.36,5.36,0,0,0-.19-1.95,7.32,7.32,0,0,0-1-2.1,8.41,8.41,0,0,0-3.08-2.84,8.78,8.78,0,0,0-3.8-1,11.54,11.54,0,0,0-4,.57,15,15,0,0,0-3.82,1.86,34.65,34.65,0,0,0-5.43,4.56,31.23,31.23,0,0,0-4.49,6c-.88,1.53-1.79,3.29-2.7,5.22s-1.79,4-2.61,6.21-1.55,4.47-2.18,6.76a60.41,60.41,0,0,0-1.49,6.84,35.83,35.83,0,0,0-.46,6.6,21.27,21.27,0,0,0,1,6c.23.64.51,1.33.83,2a15.61,15.61,0,0,0,1.24,2.19,9.36,9.36,0,0,0,1.59,1.85,13,13,0,0,0,6.05,3.05,13.62,13.62,0,0,0,4.35.17,15.92,15.92,0,0,0,3.92-1,18.45,18.45,0,0,0,3.31-1.73c.62-.42,1.34-.92,2.16-1.51l2.51-1.85,2.51-1.87c.81-.6,1.52-1.1,2.14-1.52a24.1,24.1,0,0,1,3-1.74,12.26,12.26,0,0,1,2.81-.95l.56-.09.41-1.74,2.94.64-.49,2.51a6.56,6.56,0,0,1,.27.82,14.8,14.8,0,0,1,.41,2.77,40.93,40.93,0,0,1,0,4.24c-.06,1.64-.24,3.6-.53,5.81a25.84,25.84,0,0,1-1.29,5.64,29.47,29.47,0,0,1-2.39,5.15,26,26,0,0,1-3.26,4.37,20.6,20.6,0,0,1-7.59,5.28,30,30,0,0,1-3.77,1.14c-1.27.29-2.54.55-3.8.76s-2.58.5-3.76.8Z"/>
            </g>
            <g>
              <path d="M725.54,333.33a14.4,14.4,0,0,0-5.47.16,14.77,14.77,0,0,0-5.08,2.17,26.11,26.11,0,0,0-2.14,1.62,9.38,9.38,0,0,0-2,2.27,5,5,0,0,0-.42.87,9.66,9.66,0,0,0-3.07.16,13,13,0,0,0-6.33,4,12.22,12.22,0,0,0-2.18,3.72l-.06.17c-.92,2.79-1.74,5.77-2.44,8.85s-1.28,6.27-1.71,9.48-.74,6.5-.88,9.72a87.61,87.61,0,0,0,.08,9.6,78.69,78.69,0,0,0,1.11,9.09,50.32,50.32,0,0,0,2.24,8.28,32.5,32.5,0,0,0,1.73,4,34.47,34.47,0,0,0,2.11,3.59,25.78,25.78,0,0,0,6.37,6.71,20.29,20.29,0,0,0,16.76,3.31,26.78,26.78,0,0,0,8.85-4,39.51,39.51,0,0,0,8.13-7.32,48.31,48.31,0,0,0,6-9.14,52.8,52.8,0,0,0,3.92-10.4,57.89,57.89,0,0,0,1.77-11.13,59.82,59.82,0,0,0-.42-11.34,53.12,53.12,0,0,0-2.67-11,48.13,48.13,0,0,0-5.19-10.59,31.61,31.61,0,0,0-8.33-8.52A26.37,26.37,0,0,0,725.54,333.33Zm.63,15.14a9.94,9.94,0,0,1,3.39,2.09,20.17,20.17,0,0,1,3.14,3.68,29,29,0,0,1,1.72,2.93,21.59,21.59,0,0,1,1.31,3.11,48,48,0,0,1,2.22,9.07,50,50,0,0,1,.49,8.9,42.86,42.86,0,0,1-1.1,8.25,39.76,39.76,0,0,1-2.49,7.31,28.2,28.2,0,0,1-3.67,5.93,19.54,19.54,0,0,1-8.74,6.32,9.18,9.18,0,0,1-3.55.45,6.54,6.54,0,0,1-2.92-1,8.78,8.78,0,0,1-2.62-2.64,19,19,0,0,1-1.73-3.44,39,39,0,0,1-2.07-8.2,72.57,72.57,0,0,1-.78-9.71,91.39,91.39,0,0,1,.4-10.17c.32-3.43.77-6.74,1.33-9.82l0-.13a8.36,8.36,0,0,1,.25-1c.15-.52.33-1.05.53-1.58.07-.19.15-.38.23-.56a8.41,8.41,0,0,0,1.41,0,5.92,5.92,0,0,0,2.92-1,8.1,8.1,0,0,0,2.21-2.09,6.85,6.85,0,0,0,1.09-2.35,7.07,7.07,0,0,0,.19-2.38c0-.4-.09-.78-.14-1.13a9.25,9.25,0,0,1,3.29-1.18A7.58,7.58,0,0,1,726.17,348.47Z" style="fill: #d9cfff"/>
              <path d="M719.25,423.14a21.93,21.93,0,0,1-4.21-.41,22.22,22.22,0,0,1-8.52-3.74,27.29,27.29,0,0,1-6.75-7.09,39.45,39.45,0,0,1-2.2-3.74,34.91,34.91,0,0,1-1.8-4.17,51.31,51.31,0,0,1-2.31-8.51,79.47,79.47,0,0,1-1.12-9.26,88.18,88.18,0,0,1-.09-9.77c.15-3.26.45-6.58.89-9.85s1-6.49,1.74-9.62,1.54-6.14,2.47-9l.08-.22a14,14,0,0,1,2.46-4.2,14.56,14.56,0,0,1,7.12-4.46,10.63,10.63,0,0,1,2.49-.25.75.75,0,0,0,.07-.12,10.75,10.75,0,0,1,2.31-2.62,27.09,27.09,0,0,1,2.28-1.71,16,16,0,0,1,5.59-2.39,15.71,15.71,0,0,1,6-.18h0a27.54,27.54,0,0,1,11.29,4.55,32.8,32.8,0,0,1,8.73,8.91,49.46,49.46,0,0,1,5.37,10.93,55.37,55.37,0,0,1,2.74,11.34,62.09,62.09,0,0,1,.43,11.63,58.59,58.59,0,0,1-1.82,11.42,54.34,54.34,0,0,1-4,10.7,49.69,49.69,0,0,1-6.21,9.42,40.9,40.9,0,0,1-8.45,7.6,28,28,0,0,1-9.35,4.19A23.59,23.59,0,0,1,719.25,423.14Zm-9.91-81.27a7.32,7.32,0,0,0-1.65.18,11.47,11.47,0,0,0-5.55,3.52,10.82,10.82,0,0,0-1.9,3.28l0,.14c-.89,2.7-1.7,5.63-2.39,8.66s-1.26,6.18-1.69,9.35-.72,6.41-.86,9.59a87.19,87.19,0,0,0,.08,9.44,77.8,77.8,0,0,0,1.08,8.91,47.9,47.9,0,0,0,2.18,8,32.46,32.46,0,0,0,1.65,3.83,34.45,34.45,0,0,0,2,3.44,24.41,24.41,0,0,0,6,6.32,19,19,0,0,0,7.37,3.23,19.24,19.24,0,0,0,8.19-.17,24.84,24.84,0,0,0,8.34-3.75,37.32,37.32,0,0,0,7.82-7,46.24,46.24,0,0,0,5.83-8.85,51.66,51.66,0,0,0,3.81-10.1A56.43,56.43,0,0,0,751.34,379a58.55,58.55,0,0,0-.4-11.06,51.63,51.63,0,0,0-2.6-10.72,46.33,46.33,0,0,0-5-10.27,30,30,0,0,0-7.93-8.11,24.75,24.75,0,0,0-10.08-4.06h0a12.85,12.85,0,0,0-4.9.14,13.31,13.31,0,0,0-4.56,2,23.17,23.17,0,0,0-2,1.52,7.92,7.92,0,0,0-1.68,1.9,2.92,2.92,0,0,0-.29.59l-.4,1.11-1.17-.12C710,341.88,709.65,341.87,709.34,341.87ZM719.55,408a6.85,6.85,0,0,1-.79,0,7.89,7.89,0,0,1-3.58-1.19,10.15,10.15,0,0,1-3.07-3.09,19.48,19.48,0,0,1-1.89-3.72,41.06,41.06,0,0,1-2.16-8.53,75.45,75.45,0,0,1-.79-9.9,94.26,94.26,0,0,1,.4-10.34c.33-3.48.79-6.83,1.35-9.94l0-.1a8.8,8.8,0,0,1,.29-1.24q.25-.84.57-1.68c.08-.21.16-.42.25-.62l.43-1,1.09.11a6.61,6.61,0,0,0,1.17,0A4.46,4.46,0,0,0,715,356a6.8,6.8,0,0,0,1.81-1.71,5.4,5.4,0,0,0,1-3.72c0-.38-.07-.73-.12-1.06l-.15-1,.9-.51a10.74,10.74,0,0,1,3.83-1.36,9.13,9.13,0,0,1,4.38.44h0a11.41,11.41,0,0,1,3.88,2.39,22.12,22.12,0,0,1,3.38,4,30.68,30.68,0,0,1,1.81,3.07,24.53,24.53,0,0,1,1.4,3.33,50.35,50.35,0,0,1,2.28,9.33,52.05,52.05,0,0,1,.5,9.17,43.53,43.53,0,0,1-1.14,8.54,41,41,0,0,1-2.59,7.58,29.56,29.56,0,0,1-3.87,6.26,21,21,0,0,1-9.45,6.8A11.21,11.21,0,0,1,719.55,408Zm-7-48.26q-.18.53-.33,1a4.55,4.55,0,0,0-.2.82l0,.17c-.56,3.06-1,6.32-1.32,9.72a90.74,90.74,0,0,0-.39,10A73.09,73.09,0,0,0,711,391a37.33,37.33,0,0,0,2,7.88,16.63,16.63,0,0,0,1.58,3.14,7.18,7.18,0,0,0,2.15,2.2A5.08,5.08,0,0,0,719,405a8,8,0,0,0,3-.39,17.93,17.93,0,0,0,8-5.84,25.85,25.85,0,0,0,3.47-5.61,36.79,36.79,0,0,0,2.4-7,40.54,40.54,0,0,0,1.06-7.95,48.75,48.75,0,0,0-.47-8.63,47.42,47.42,0,0,0-2.15-8.8,20,20,0,0,0-1.23-2.91,30,30,0,0,0-1.63-2.78,19.51,19.51,0,0,0-2.91-3.42,8.59,8.59,0,0,0-2.89-1.78,6.33,6.33,0,0,0-3-.29,7.08,7.08,0,0,0-1.86.56s0,.09,0,.13a8.53,8.53,0,0,1-.22,2.89A8.69,8.69,0,0,1,719.3,356a9.68,9.68,0,0,1-2.6,2.48,7.3,7.3,0,0,1-3.66,1.27A4.1,4.1,0,0,1,712.54,359.78Z"/>
            </g>
            <g>
              <path d="M796.42,297.16a26.24,26.24,0,0,0-10.69-4.31,14.4,14.4,0,0,0-5.47.16,14.77,14.77,0,0,0-5.08,2.17A26.11,26.11,0,0,0,773,296.8a9.24,9.24,0,0,0-2,2.28,4.56,4.56,0,0,0-.42.86,9.29,9.29,0,0,0-3.06.17,12.92,12.92,0,0,0-6.34,4,12.22,12.22,0,0,0-2.18,3.72L759,308c-.92,2.8-1.74,5.77-2.44,8.85s-1.28,6.27-1.71,9.48-.74,6.5-.88,9.72a90.18,90.18,0,0,0,.08,9.6,78.42,78.42,0,0,0,1.11,9.09,50.05,50.05,0,0,0,2.24,8.28,33.33,33.33,0,0,0,1.73,4,36.18,36.18,0,0,0,2.11,3.58,25.62,25.62,0,0,0,6.37,6.71,20.29,20.29,0,0,0,16.76,3.31,26.58,26.58,0,0,0,8.85-4,39.22,39.22,0,0,0,8.13-7.32,47.53,47.53,0,0,0,6-9.14,52.56,52.56,0,0,0,3.92-10.4A57.13,57.13,0,0,0,813,338.64a59.85,59.85,0,0,0-.42-11.34,52.87,52.87,0,0,0-2.67-11,48,48,0,0,0-5.19-10.6A31.42,31.42,0,0,0,796.42,297.16Zm-10,10.83a10,10,0,0,1,3.38,2.09,20.17,20.17,0,0,1,3.14,3.68,29,29,0,0,1,1.72,2.93,22.84,22.84,0,0,1,1.32,3.11,49.45,49.45,0,0,1,2.22,9.08,50.79,50.79,0,0,1,.48,8.9,42.09,42.09,0,0,1-1.1,8.24,39.76,39.76,0,0,1-2.49,7.31,27.94,27.94,0,0,1-3.67,5.93,19.46,19.46,0,0,1-8.74,6.32,9.16,9.16,0,0,1-3.54.45,6.54,6.54,0,0,1-2.93-1,8.65,8.65,0,0,1-2.61-2.64,18,18,0,0,1-1.74-3.44,39,39,0,0,1-2.07-8.2,74.12,74.12,0,0,1-.78-9.71,91.39,91.39,0,0,1,.4-10.17c.32-3.43.77-6.73,1.33-9.82l0-.13a8.36,8.36,0,0,1,.25-1c.15-.52.33-1,.53-1.58.08-.19.15-.38.23-.56a8.41,8.41,0,0,0,1.41,0,5.82,5.82,0,0,0,2.92-1,8.1,8.1,0,0,0,2.21-2.09,7,7,0,0,0,1.1-2.35,7.29,7.29,0,0,0,.18-2.37c0-.4-.09-.79-.14-1.14a9.32,9.32,0,0,1,3.29-1.18A7.74,7.74,0,0,1,786.37,308Z" style="fill: #d9cfff"/>
              <path d="M779.45,382.67a21.19,21.19,0,0,1-4.22-.42,22.22,22.22,0,0,1-8.52-3.74,27.29,27.29,0,0,1-6.75-7.09,39.45,39.45,0,0,1-2.2-3.74,36.45,36.45,0,0,1-1.8-4.16,51.7,51.7,0,0,1-2.31-8.52,79.21,79.21,0,0,1-1.12-9.26,88.18,88.18,0,0,1-.09-9.77c.15-3.26.45-6.58.89-9.85s1-6.49,1.74-9.62,1.55-6.14,2.47-9l.08-.21a14,14,0,0,1,2.46-4.21,14.45,14.45,0,0,1,7.13-4.45,10,10,0,0,1,2.49-.26l.06-.11a10.81,10.81,0,0,1,2.31-2.63,27.09,27.09,0,0,1,2.28-1.71,16,16,0,0,1,5.59-2.39,15.71,15.71,0,0,1,6-.18,27.63,27.63,0,0,1,11.3,4.55h0a32.81,32.81,0,0,1,8.72,8.92,49.37,49.37,0,0,1,5.37,10.92,54.88,54.88,0,0,1,2.74,11.34,61.25,61.25,0,0,1,.43,11.63,58.59,58.59,0,0,1-1.82,11.42,54.1,54.1,0,0,1-4,10.7,49.21,49.21,0,0,1-6.21,9.42,40.4,40.4,0,0,1-8.45,7.6,28,28,0,0,1-9.34,4.19A23.67,23.67,0,0,1,779.45,382.67Zm-9.91-81.28a7.19,7.19,0,0,0-1.65.18,11.52,11.52,0,0,0-5.56,3.52,10.82,10.82,0,0,0-1.9,3.28l0,.13c-.89,2.71-1.69,5.64-2.39,8.67s-1.26,6.18-1.69,9.35-.72,6.41-.86,9.59a87.17,87.17,0,0,0,.08,9.44,77.8,77.8,0,0,0,1.08,8.91,48.28,48.28,0,0,0,2.18,8,31.6,31.6,0,0,0,1.65,3.82,34.52,34.52,0,0,0,2,3.44,24.22,24.22,0,0,0,6,6.32,19.18,19.18,0,0,0,7.37,3.24,19.4,19.4,0,0,0,8.19-.17,25.07,25.07,0,0,0,8.34-3.76,37.55,37.55,0,0,0,7.82-7A46.87,46.87,0,0,0,806,359.5a51.35,51.35,0,0,0,3.81-10.11,56.45,56.45,0,0,0,1.72-10.83,58.49,58.49,0,0,0-.4-11.06,51.57,51.57,0,0,0-2.6-10.73,46,46,0,0,0-5-10.26,29.94,29.94,0,0,0-7.93-8.12,24.7,24.7,0,0,0-10.08-4.06,12.71,12.71,0,0,0-4.91.15,13.18,13.18,0,0,0-4.56,1.95,23.17,23.17,0,0,0-2,1.52,7.92,7.92,0,0,0-1.68,1.9,3.2,3.2,0,0,0-.29.59l-.39,1.11-1.18-.11A7.19,7.19,0,0,0,769.54,301.39Zm10.2,66.17q-.4,0-.78,0a8,8,0,0,1-3.59-1.2,10.15,10.15,0,0,1-3.07-3.09,19.48,19.48,0,0,1-1.89-3.72,41.53,41.53,0,0,1-2.16-8.53,75.45,75.45,0,0,1-.79-9.9,91.86,91.86,0,0,1,.41-10.34c.33-3.48.78-6.83,1.34-9.94l0-.1a11,11,0,0,1,.29-1.24q.26-.83.57-1.68c.08-.21.16-.41.25-.61l.43-1,1.09.11a6.61,6.61,0,0,0,1.17,0,4.46,4.46,0,0,0,2.19-.77,6.8,6.8,0,0,0,1.81-1.71,5.46,5.46,0,0,0,.87-1.85,5.38,5.38,0,0,0,.14-1.87c0-.37-.07-.73-.12-1.06l-.15-1,.9-.51a10.93,10.93,0,0,1,3.83-1.36,9.15,9.15,0,0,1,4.38.44h0a11.41,11.41,0,0,1,3.88,2.39,21.72,21.72,0,0,1,3.38,4A32,32,0,0,1,796,316a22.91,22.91,0,0,1,1.4,3.32,50.26,50.26,0,0,1,2.28,9.34,51.89,51.89,0,0,1,.5,9.16,43.63,43.63,0,0,1-1.14,8.54A41.06,41.06,0,0,1,796.4,354a29.74,29.74,0,0,1-3.87,6.25,21,21,0,0,1-9.45,6.8A10.9,10.9,0,0,1,779.74,367.56Zm-7-48.25c-.12.34-.23.68-.33,1a4.55,4.55,0,0,0-.2.82l0,.16c-.55,3.08-1,6.34-1.32,9.73a90.83,90.83,0,0,0-.39,10,73.09,73.09,0,0,0,.76,9.51,38.26,38.26,0,0,0,2,7.88,16.33,16.33,0,0,0,1.58,3.14,7.34,7.34,0,0,0,2.15,2.21,5.19,5.19,0,0,0,2.27.76,7.59,7.59,0,0,0,3-.39,18,18,0,0,0,8-5.83,26.14,26.14,0,0,0,3.46-5.62,36.79,36.79,0,0,0,2.4-7,40.65,40.65,0,0,0,1.06-7.95,47.82,47.82,0,0,0-.47-8.63,47.13,47.13,0,0,0-2.15-8.79,19.63,19.63,0,0,0-1.23-2.92,27.13,27.13,0,0,0-1.63-2.78,18.29,18.29,0,0,0-2.91-3.41,8.46,8.46,0,0,0-2.89-1.79,6.19,6.19,0,0,0-3-.28,6.68,6.68,0,0,0-1.86.55c0,.05,0,.09,0,.13a8.53,8.53,0,0,1-.22,2.89,8.4,8.4,0,0,1-1.32,2.84,9.53,9.53,0,0,1-2.6,2.48,7.41,7.41,0,0,1-3.66,1.28Z"/>
            </g>
            <g>
              <path d="M857.27,234.65a19.27,19.27,0,0,0-3.77-1.93l-.72-.26-.76.12a11.11,11.11,0,0,0-2.59.74,11.56,11.56,0,0,0-2,1.07,4.56,4.56,0,0,0-2,3.17,7.28,7.28,0,0,0,.14,2.73,14.35,14.35,0,0,0,.76,2.33c.3.7.6,1.36.91,2s.61,1.2.89,1.68.43.73.56.94c.53,1,1.12,2.14,1.75,3.52s1.33,3,2,4.56,1.27,3.15,1.86,4.71,1.11,2.95,1.55,4.21c1.82,5.07,3.36,9.55,4.58,13.31s2.24,7.06,3,9.86,1.43,5.21,1.89,7.21.87,3.83,1.19,5.42l0,.14c.05.19.11.39.17.6l-.67-.34a101.69,101.69,0,0,1-9.75-5.88c-3.18-2.16-6.24-4.37-9.1-6.56s-5.64-4.39-8.19-6.45-5-4-7.09-5.64a69.62,69.62,0,0,0-5.86-4.1,11.14,11.14,0,0,0-5.31-1.9,30.48,30.48,0,0,0-3.29-.26,8.7,8.7,0,0,0-8,5.2,9.69,9.69,0,0,0-.68,4,14.56,14.56,0,0,0,.63,3.64c.3,1,.62,1.95.94,2.81L824.59,333l1.82,5.11c.46,1.33.79,2.28,1,2.84a7.83,7.83,0,0,0,.86,1.94,7,7,0,0,0,2,1.94,10.49,10.49,0,0,0,2.36,1.14,9,9,0,0,0,2.7.48,5.55,5.55,0,0,0,3.26-.91,6.63,6.63,0,0,0,2.62-3.77,8.83,8.83,0,0,0-.13-5l0-.12c-.12-.33-.32-1-.63-2.11s-.7-2.42-1.11-3.82-.81-2.75-1.21-4.12-.7-2.44-.94-3.34c-.31-1.12-.73-2.6-1.27-4.42s-1.12-3.78-1.78-5.9-1.32-4.28-2-6.53-1.37-4.41-2-6.43-1.22-3.8-1.73-5.39c-.45-1.4-.82-2.52-1.09-3.32,2.47,2.15,5.07,4.38,7.76,6.63,3.61,3,7.4,5.95,11.27,8.67a113.93,113.93,0,0,0,12,7.43,60.45,60.45,0,0,0,12.6,5.1,6.9,6.9,0,0,0,4.24-.11,10.29,10.29,0,0,0,6.26-5.41,14.26,14.26,0,0,0,1.18-4.68,23.18,23.18,0,0,0-.14-4.76c-.19-1.53-.46-3-.78-4.45-.66-3-1.31-5.86-2-8.46s-1.26-5.06-1.86-7.37-1.22-4.54-1.83-6.61-1.19-4.06-1.77-6c-.34-1.1-.78-2.5-1.32-4.17s-1.15-3.51-1.84-5.5-1.43-4.06-2.23-6.18-1.62-4.21-2.44-6.19-1.66-3.85-2.46-5.54a35.74,35.74,0,0,0-2.48-4.47A15.76,15.76,0,0,0,857.27,234.65Z" style="fill: #d9cfff"/>
              <path d="M835.48,348h-.18a10.39,10.39,0,0,1-3.14-.56,11.58,11.58,0,0,1-2.7-1.3,8.56,8.56,0,0,1-2.46-2.36,9.07,9.07,0,0,1-1-2.32c-.18-.55-.5-1.49-1-2.81l-1.81-5.09-14.32-47.75q-.5-1.32-1-2.85a16.22,16.22,0,0,1-.69-4,11.09,11.09,0,0,1,.78-4.62,10.21,10.21,0,0,1,9.48-6.15,32.64,32.64,0,0,1,3.39.26,12.68,12.68,0,0,1,5.95,2.12,69.47,69.47,0,0,1,6,4.19c2.11,1.63,4.51,3.53,7.13,5.66s5.27,4.22,8.16,6.43,5.87,4.37,9,6.52c2.39,1.62,4.87,3.16,7.4,4.58-.21-.94-.43-1.92-.67-2.95-.46-2-1.09-4.37-1.88-7.14s-1.79-6.08-3-9.81-2.75-8.21-4.56-13.27c-.44-1.25-.95-2.63-1.54-4.18s-1.2-3.11-1.84-4.67-1.29-3.06-2-4.51-1.18-2.49-1.69-3.42c-.09-.13-.29-.47-.55-.91s-.61-1.09-.94-1.76-.63-1.34-.94-2.07a14.9,14.9,0,0,1-.84-2.58,8.68,8.68,0,0,1-.16-3.27,6,6,0,0,1,2.62-4.21,14.2,14.2,0,0,1,2.29-1.2,12.76,12.76,0,0,1,2.95-.85l1.14-.17,1.09.39a20.73,20.73,0,0,1,4.07,2.09h0a16.81,16.81,0,0,1,4.64,4.9,37.48,37.48,0,0,1,2.59,4.66c.82,1.72,1.66,3.61,2.49,5.62s1.66,4.09,2.46,6.23,1.56,4.23,2.25,6.22,1.31,3.84,1.85,5.53,1,3.08,1.32,4.19c.59,2,1.18,4,1.78,6s1.23,4.33,1.84,6.65,1.23,4.78,1.87,7.39,1.3,5.46,2,8.5c.33,1.46.6,3,.8,4.57a24.88,24.88,0,0,1,.14,5.08,15.43,15.43,0,0,1-1.31,5.18,11.67,11.67,0,0,1-7.13,6.21,8.36,8.36,0,0,1-5.14.13,62.18,62.18,0,0,1-12.9-5.21,119.81,119.81,0,0,1-12.18-7.53c-3.9-2.75-7.72-5.69-11.37-8.75-1.25-1.05-2.49-2.1-3.7-3.14.35,1.12.74,2.33,1.16,3.61q1,3,2,6.45t2,6.53q1,3.18,1.79,5.91c.54,1.84,1,3.32,1.28,4.45.24.9.54,2,.93,3.32s.8,2.74,1.21,4.12.78,2.68,1.11,3.83.5,1.72.61,2.05l0,.14a10.34,10.34,0,0,1,.14,5.92,8.12,8.12,0,0,1-3.23,4.6A6.92,6.92,0,0,1,835.48,348Zm-18.27-76.83a7.21,7.21,0,0,0-6.43,4.25,8.39,8.39,0,0,0-.58,3.39,13.61,13.61,0,0,0,.57,3.28c.3,1,.61,1.88.92,2.71l0,.1L826,332.58l1.79,5c.48,1.36.8,2.32,1,2.89a6,6,0,0,0,.68,1.57,5.48,5.48,0,0,0,1.61,1.51,9,9,0,0,0,2,1,7.29,7.29,0,0,0,2.24.4,4.08,4.08,0,0,0,2.4-.65,5.21,5.21,0,0,0,2-2.95,7.34,7.34,0,0,0-.13-4.21l0-.09c-.11-.32-.33-1-.64-2.15s-.7-2.41-1.11-3.8-.81-2.76-1.21-4.13-.71-2.47-.95-3.38c-.3-1.1-.72-2.57-1.26-4.38s-1.12-3.77-1.77-5.88l-2-6.53c-.69-2.26-1.36-4.39-2-6.41l-1.73-5.4c-.45-1.39-.81-2.5-1.08-3.3l-1.76-5.25,4.17,3.65c2.46,2.15,5.06,4.37,7.73,6.61,3.58,3,7.34,5.9,11.17,8.59A112.14,112.14,0,0,0,859,312.64a59.24,59.24,0,0,0,12.28,5,5.5,5.5,0,0,0,3.36-.07,8.8,8.8,0,0,0,5.38-4.61,12.42,12.42,0,0,0,1.05-4.19,22.29,22.29,0,0,0-.12-4.45c-.19-1.48-.45-2.93-.76-4.3-.66-3-1.32-5.87-2-8.44s-1.26-5.05-1.87-7.35-1.21-4.5-1.81-6.57-1.19-4.06-1.77-6c-.33-1.09-.77-2.47-1.31-4.14s-1.14-3.49-1.82-5.47-1.43-4-2.22-6.15-1.62-4.17-2.43-6.13-1.63-3.8-2.43-5.48a33.45,33.45,0,0,0-2.37-4.28,14.19,14.19,0,0,0-3.79-4.06h0a17,17,0,0,0-3.46-1.78l-.36-.13-.38.06a9.28,9.28,0,0,0-2.24.65,10.73,10.73,0,0,0-1.78.92,3.14,3.14,0,0,0-1.34,2.15A6,6,0,0,0,847,240a13.09,13.09,0,0,0,.69,2.09c.28.67.57,1.31.86,1.9s.58,1.13.84,1.58.41.69.54.89c.59,1.07,1.2,2.29,1.84,3.7s1.35,3,2,4.62,1.28,3.18,1.88,4.75,1.11,3,1.56,4.24c1.82,5.07,3.36,9.56,4.59,13.34s2.24,7.11,3,9.92,1.44,5.26,1.91,7.28.88,3.85,1.2,5.47l0,.1c0,.14.08.32.14.51l1,3.33-3.76-1.91a103.71,103.71,0,0,1-9.93-6c-3.19-2.17-6.28-4.4-9.16-6.61s-5.67-4.41-8.22-6.48-5-4-7.07-5.61a65.06,65.06,0,0,0-5.73-4,9.69,9.69,0,0,0-4.56-1.68h-.16a27.57,27.57,0,0,0-3.13-.25Z"/>
            </g>
          </g>
        </g>
        <g>
          <path d="M381.69,324a1.5,1.5,0,0,1-1.05-2.57c56.94-56.26,94.1-115.59,110.43-176.32a1.5,1.5,0,1,1,2.89.78c-16.46,61.25-53.88,121-111.22,177.68A1.48,1.48,0,0,1,381.69,324Z"/>
          <path d="M722.15,525a1.4,1.4,0,0,1-.41-.06c-69.54-20.1-137.39-23.17-220-10a1.5,1.5,0,1,1-.48-3c83.08-13.29,151.33-10.19,221.31,10a1.5,1.5,0,0,1-.42,2.94Z"/>
          <path d="M502.5,203a1.5,1.5,0,0,1-1.32-2.21C520.73,164.56,521,119,521,118.5a1.5,1.5,0,0,1,1.5-1.5h0a1.5,1.5,0,0,1,1.5,1.5c0,.46-.23,46.81-20.15,83.71A1.51,1.51,0,0,1,502.5,203Z"/>
          <path d="M690.2,550a1.5,1.5,0,0,1-.67-.16C660.32,535.21,616.89,539,616.46,539a1.5,1.5,0,0,1-.28-3c1.82-.17,44.7-3.87,74.69,11.15a1.5,1.5,0,0,1-.67,2.84Z"/>
        </g>
      </g>
    </g>
  </g>
</svg>
